<svg width="80" height="80" viewBox="0 0 80 80" fill="none" xmlns="http://www.w3.org/2000/svg">
<rect x="1" y="1" width="78" height="78" rx="39" fill="#FEB502"/>
<rect x="1" y="1" width="78" height="78" rx="39" stroke="white" stroke-width="2"/>
<path fill-rule="evenodd" clip-rule="evenodd" d="M42.9598 22.4967L47.4733 25.1025L33.4316 33.2095V39.5943L37.5037 41.9453V35.5606L51.5453 27.4536L56.0589 30.0594C56.3587 30.2325 56.5302 30.5296 56.5302 30.8757V39.4586C55.8847 39.3295 55.228 39.2646 54.5697 39.2648C49.081 39.2648 44.6316 43.7143 44.6316 49.2029C44.6316 50.542 44.897 51.8187 45.3771 52.9846L42.9598 54.3803C42.66 54.5533 42.3169 54.5533 42.0172 54.3803L29.7527 47.2994H17.7546C17.5546 47.2994 17.3628 47.22 17.2214 47.0785C17.0799 46.9371 17.0005 46.7453 17.0005 46.5453C17.0005 46.3453 17.0799 46.1535 17.2214 46.0121C17.3628 45.8707 17.5546 45.7912 17.7546 45.7912H28.4468V39.1924H21.4773C21.2773 39.1924 21.0855 39.113 20.9441 38.9716C20.8027 38.8301 20.7232 38.6383 20.7232 38.4383C20.7232 38.2383 20.8027 38.0465 20.9441 37.9051C21.0855 37.7637 21.2773 37.6842 21.4773 37.6842H28.4468V31.0854H17.7546C17.5546 31.0854 17.3628 31.006 17.2214 30.8646C17.0799 30.7231 17.0005 30.5313 17.0005 30.3313C17.0005 30.1314 17.0799 29.9395 17.2214 29.7981C17.3628 29.6567 17.5546 29.5773 17.7546 29.5773H29.753L39.6298 23.8749H34.5366C34.3366 23.8749 34.1448 23.7954 34.0033 23.654C33.8619 23.5126 33.7825 23.3208 33.7825 23.1208C33.7825 22.9208 33.8619 22.729 34.0033 22.5876C34.1448 22.4461 34.3366 22.3667 34.5366 22.3667H42.4886C42.6551 22.3669 42.8158 22.4135 42.9598 22.4967ZM54.5697 40.7731C49.914 40.7731 46.1397 44.5474 46.1397 49.203C46.1397 53.8587 49.914 57.6329 54.5697 57.6329C59.2255 57.6329 62.9997 53.8587 62.9997 49.203C62.9997 44.5473 59.2255 40.7731 54.5697 40.7731ZM59.3324 47.5655C57.6702 49.2431 56.0192 50.9317 54.3493 52.6017C53.8611 53.0898 53.0692 53.0898 52.5811 52.6017L49.8106 49.8312C49.3224 49.3431 49.3224 48.5512 49.8106 48.063C50.2987 47.5748 51.0907 47.5748 51.5789 48.063L53.4625 49.9466L57.5615 45.8067C58.0468 45.3166 58.8384 45.3152 59.3269 45.8012C59.8156 46.287 59.8171 47.0764 59.3324 47.5655ZM29.8377 22.3669H21.4773C21.2773 22.3669 21.0855 22.4463 20.9441 22.5878C20.8027 22.7292 20.7232 22.921 20.7232 23.121C20.7232 23.321 20.8027 23.5128 20.9441 23.6542C21.0855 23.7956 21.2773 23.8751 21.4773 23.8751H29.8377C30.0377 23.8751 30.2295 23.7956 30.3709 23.6542C30.5123 23.5128 30.5917 23.321 30.5917 23.121C30.5917 22.921 30.5123 22.7292 30.3709 22.5878C30.2295 22.4463 30.0377 22.3669 29.8377 22.3669Z" fill="white"/>
</svg>
