<svg width="100" height="100" viewBox="0 0 100 100" fill="none" xmlns="http://www.w3.org/2000/svg">
<rect x="1" y="1" width="98" height="98" rx="49" fill="white"/>
<rect x="1" y="1" width="98" height="98" rx="49" stroke="#FEB502" stroke-width="2"/>
<path d="M26.8304 75.2508C25.9913 74.8636 25.7479 74.1981 25.7505 73.2981C25.7712 63.7357 25.7635 54.1733 25.7648 44.6108C25.7648 44.4011 25.7531 44.1861 25.7932 43.9828C25.9331 43.2707 26.609 42.7514 27.2991 42.8045C28.0773 42.8641 28.6612 43.4791 28.6664 44.2923C28.6781 46.0533 28.6703 47.813 28.6703 49.574C28.6703 49.7488 28.6703 49.9223 28.6703 50.1489H29.2789C35.8513 50.1489 42.4238 50.1489 48.9962 50.1489C50.3428 50.1489 50.8569 50.6694 50.8569 52.0316C50.8569 58.59 50.8569 65.1471 50.8569 71.7055V72.3426H51.4033C53.0671 72.3426 54.7297 72.3426 56.3935 72.3426C57.4164 72.3426 57.9796 72.7116 58.1583 73.495C58.3292 74.2434 57.9835 74.8002 57.0694 75.2508H26.8304Z" fill="#FEB502"/>
<path d="M75.2493 57.0555C74.8552 57.9089 74.3571 58.2787 73.7281 58.1872C72.9926 58.08 72.5043 57.4698 72.503 56.6243C72.4981 53.8904 72.5018 51.1579 72.5018 48.4241C72.5018 47.1552 72.5018 45.8863 72.5018 44.6174C72.5018 43.5928 72.853 43.0231 73.5947 42.8427C74.2971 42.6715 74.8246 43.0218 75.2505 43.943V57.0542L75.2493 57.0555Z" fill="#FEB502"/>
<path d="M68.6115 75.2508C68.5202 75.1942 68.4315 75.1339 68.3377 75.0812C67.749 74.7523 67.4469 74.1252 67.5831 73.5124C67.731 72.8455 68.2889 72.3765 68.9958 72.3688C70.0975 72.356 71.1991 72.365 72.3637 72.365C72.3637 71.544 72.3637 70.7499 72.3637 69.9572C72.3637 69.6539 72.3585 69.3494 72.365 69.0462C72.3804 68.3048 72.8226 67.7446 73.5129 67.5853C74.1479 67.4375 74.7932 67.7729 75.1287 68.4217C75.1634 68.4886 75.2096 68.549 75.2508 68.6119V74.1921C75.0207 74.6675 74.6672 75.0195 74.1929 75.2508H68.6115Z" fill="#FEB502"/>
<path d="M75.2508 32.3893C75.2096 32.4522 75.1634 32.5126 75.1286 32.5794C74.7918 33.2292 74.1463 33.5644 73.5112 33.4155C72.8194 33.2536 72.3733 32.6962 72.3656 31.9526C72.3566 31.0253 72.363 30.0967 72.363 29.1694C72.363 29.0127 72.363 28.856 72.363 28.6403C71.3267 28.6403 70.3238 28.6416 69.321 28.639C69.1139 28.639 68.9005 28.6467 68.6999 28.603C67.9876 28.4502 67.5042 27.8016 67.5543 27.0965C67.6058 26.3721 68.1972 25.7723 68.9455 25.7634C70.5784 25.7441 72.2113 25.7492 73.8442 25.7608C74.5578 25.7659 74.9499 26.2373 75.2508 26.8139V32.3918V32.3893Z" fill="#FEB502"/>
<path d="M63.0152 35.8029C61.9581 35.8029 60.9023 35.8183 59.8452 35.799C58.8359 35.7796 58.1647 34.88 58.4357 33.9481C58.6113 33.3454 59.1482 32.9117 59.7949 32.9091C62.0807 32.8988 64.3678 32.8975 66.6536 32.9091C67.4745 32.913 68.0876 33.5274 68.0915 34.3547C68.1044 36.625 68.1031 38.8967 68.0915 41.167C68.0876 41.9917 67.45 42.6229 66.6627 42.6345C65.8663 42.6461 65.2132 41.9956 65.2003 41.1489C65.1861 40.2467 65.1964 39.3445 65.1964 38.4436C65.1964 38.29 65.1964 38.1364 65.1964 37.8873C64.9951 38.0745 64.8686 38.1868 64.7486 38.3068C61.6057 41.4496 58.459 44.5886 55.3226 47.7379C54.8618 48.2013 54.3416 48.4194 53.7092 48.2361C52.7644 47.9625 52.3953 46.8035 52.9851 45.9981C53.0987 45.8432 53.242 45.7102 53.3775 45.5734C56.4739 42.4745 59.5703 39.3768 62.6692 36.2817C62.7944 36.1565 62.9442 36.0571 63.0823 35.9448C63.059 35.8971 63.0358 35.8493 63.0126 35.8029H63.0152Z" fill="#FEB502"/>
<path d="M50.4838 25.7516C52.5045 25.7516 54.5239 25.7504 56.5447 25.7516C57.5224 25.7516 58.2073 26.3281 58.2007 27.1323C58.1942 27.9377 57.5132 28.4996 56.529 28.4996C52.5045 28.5008 48.4814 28.5008 44.4569 28.4996C43.4818 28.4996 42.7943 27.9206 42.8008 27.1176C42.8074 26.3134 43.4897 25.7516 44.4726 25.7516C46.4763 25.7491 48.4801 25.7516 50.4838 25.7516Z" fill="#FEB502"/>
<path d="M28.6398 28.6402C28.6398 29.7355 28.6424 30.7741 28.6398 31.8128C28.6372 32.791 28.0586 33.4466 27.2009 33.4505C26.3432 33.4531 25.7542 32.7962 25.7529 31.8231C25.7504 30.3319 25.7491 28.8408 25.7529 27.3496C25.7555 26.3495 26.338 25.7582 27.3282 25.7543C28.852 25.7492 30.3745 25.7492 31.8983 25.7543C32.7972 25.7582 33.4414 26.3559 33.4504 27.1799C33.4594 28.0232 32.8087 28.6338 31.8816 28.6389C30.8246 28.6441 29.7675 28.6389 28.6385 28.6389L28.6398 28.6402Z" fill="#FEB502"/>
</svg>
