<svg width="80" height="80" viewBox="0 0 80 80" fill="none" xmlns="http://www.w3.org/2000/svg">
<rect x="1" y="1" width="78" height="78" rx="39" fill="#A7BD37"/>
<rect x="1" y="1" width="78" height="78" rx="39" stroke="white" stroke-width="2"/>
<path d="M60.9996 25.1974V42.4588C60.9175 42.463 60.8363 42.4704 60.7541 42.4704C46.9617 42.4704 33.1693 42.4704 19.3779 42.4704C19.2608 42.4704 19.1426 42.4536 19.0276 42.4452C19.0153 42.374 19.0029 42.3342 19.0029 42.2934C19.0029 36.7504 18.9937 31.2064 19.0081 25.6635C19.0111 24.4548 19.4991 23.4503 20.4392 22.6899C21.2066 22.0677 22.0963 21.8834 23.0497 21.8844C28.4218 21.8886 33.7939 21.8865 39.166 21.8865C45.0981 21.8865 51.0311 21.8918 56.9631 21.8823C58.3008 21.8802 59.4658 22.2741 60.2404 23.4231C60.5928 23.9447 60.7531 24.6014 60.9996 25.1964V25.1974ZM43.9536 29.4876C43.9536 29.7034 43.9536 29.8542 43.9536 30.0051C43.9525 31.8338 43.9484 33.6616 43.9495 35.4904C43.9495 36.4896 44.4272 36.9788 45.4124 36.9819C47.161 36.9871 48.9106 36.9777 50.6592 36.9861C51.2941 36.9892 51.7431 36.7295 52.0564 36.1544C52.8927 34.6189 53.7536 33.0991 54.6002 31.5699C55.2392 30.4167 54.6937 29.4688 53.394 29.4677C51.2212 29.4656 49.0493 29.4677 46.8764 29.4677C46.7326 29.4677 46.5888 29.4677 46.409 29.4677C46.409 29.0027 46.4213 28.5994 46.4059 28.1972C46.3812 27.575 45.9847 27.0754 45.3816 27.0325C44.6347 26.9791 43.8796 26.9759 43.1327 27.0325C42.4824 27.0817 42.0704 27.6567 42.1033 28.3198C42.1351 28.9534 42.5933 29.4353 43.2293 29.4866C43.4563 29.5044 43.6854 29.4897 43.9525 29.4897L43.9536 29.4876ZM32.2488 28.2883C30.2803 28.2883 28.3119 28.2821 26.3435 28.2915C25.7455 28.2946 25.2678 28.6989 25.1527 29.2488C25.0274 29.849 25.2955 30.446 25.8359 30.666C26.0692 30.7613 26.3404 30.7938 26.5941 30.7938C30.3533 30.8011 34.1134 30.8 37.8726 30.7969C38.0616 30.7969 38.2558 30.778 38.4407 30.7351C38.827 30.645 39.0921 30.3884 39.2451 30.0229C39.5975 29.1807 39.0088 28.2978 38.0729 28.2915C36.1322 28.2789 34.1905 28.2873 32.2498 28.2883H32.2488ZM32.2138 34.8075C34.0734 34.8075 35.9319 34.8085 37.7914 34.8054C37.9948 34.8054 38.2044 34.798 38.4017 34.7551C39.0931 34.6043 39.4979 33.8637 39.2811 33.1735C39.091 32.5712 38.6688 32.2958 37.9075 32.2947C34.1206 32.2926 30.3348 32.2947 26.5479 32.2947C26.4246 32.2947 26.3013 32.2968 26.1791 32.3115C25.6284 32.3775 25.2 32.8195 25.1353 33.3819C25.0397 34.2125 25.5986 34.8001 26.513 34.8043C28.4126 34.8117 30.3132 34.8064 32.2128 34.8064L32.2138 34.8075ZM32.2066 36.3C30.3749 36.3 28.5431 36.3 26.7123 36.3C26.5346 36.3 26.3558 36.3021 26.1811 36.3252C25.5586 36.4058 25.1199 36.9222 25.1219 37.558C25.124 38.1938 25.5637 38.706 26.1883 38.7856C26.364 38.8086 26.5428 38.8096 26.7195 38.8096C30.3964 38.8107 34.0734 38.8107 37.7503 38.8096C37.9414 38.8096 38.1346 38.8065 38.3226 38.7782C38.8835 38.6944 39.3047 38.2137 39.3407 37.6334C39.3756 37.0762 39.0325 36.5252 38.5137 36.3754C38.2815 36.3084 38.0277 36.3011 37.7842 36.3011C35.9257 36.2958 34.0662 36.2979 32.2077 36.2979L32.2066 36.3ZM45.8326 40.1252C46.5168 40.1242 47.0562 39.5743 47.0552 38.8777C47.0542 38.1917 46.4973 37.6229 45.8275 37.624C45.1618 37.625 44.5977 38.2032 44.5998 38.883C44.6018 39.5732 45.1515 40.1273 45.8326 40.1252ZM49.2414 40.1262C49.9205 40.1231 50.4671 39.5638 50.463 38.8735C50.4589 38.1885 49.8979 37.6187 49.2301 37.6229C48.5541 37.6271 48.0158 38.1875 48.0178 38.8851C48.0199 39.5847 48.5562 40.1283 49.2414 40.1252V40.1262Z" fill="white"/>
<path d="M60.9996 48.5273C60.752 49.0809 60.5908 49.6909 60.2394 50.1773C59.475 51.2327 58.3243 51.6128 57.0021 51.6099C53.2563 51.6021 49.5105 51.6069 45.7646 51.6069C45.5889 51.6069 45.4143 51.6069 45.2119 51.6069V55.7752C45.3639 55.7752 45.5078 55.7752 45.6526 55.7752C46.6091 55.7752 47.5666 55.7703 48.5231 55.7771C49.2618 55.783 49.8022 56.2654 49.8207 56.9183C49.8392 57.5742 49.2824 58.1034 48.5314 58.1112C47.4649 58.1229 46.3985 58.1141 45.3321 58.1141C40.7931 58.1141 36.2552 58.1151 31.7162 58.1112C31.4871 58.1112 31.2477 58.0995 31.0299 58.0391C30.468 57.8822 30.1135 57.3384 30.1926 56.8053C30.281 56.2118 30.7566 55.7898 31.3916 55.781C32.3624 55.7674 33.3323 55.7761 34.3032 55.7761C34.4521 55.7761 34.6021 55.7761 34.783 55.7761V51.6079C34.5867 51.6079 34.4121 51.6079 34.2374 51.6079C30.4916 51.6079 26.7458 51.606 22.9999 51.6089C22.0743 51.6089 21.2113 51.4305 20.4643 50.8789C19.5705 50.2201 19.0651 49.3479 19.0219 48.2798C18.9788 47.1912 19.0127 46.0997 19.0127 44.9516H19.5377C33.1946 44.9516 46.8506 44.9516 60.5075 44.9516C60.6709 44.9516 60.8353 44.9448 60.9986 44.9409V48.5273H60.9996ZM39.9907 48.3753V48.3743C40.2085 48.3743 40.4284 48.388 40.6452 48.3714C41.2318 48.3285 41.689 47.8929 41.7404 47.3432C41.7969 46.7507 41.4578 46.203 40.8589 46.1182C40.302 46.0393 39.7133 46.0383 39.1565 46.1143C38.538 46.1991 38.1918 46.7565 38.2596 47.3647C38.3202 47.9114 38.7836 48.3344 39.3764 48.3724C39.5798 48.385 39.7853 48.3743 39.9897 48.3743L39.9907 48.3753Z" fill="white"/>
</svg>
