<svg width="80" height="80" viewBox="0 0 80 80" fill="none" xmlns="http://www.w3.org/2000/svg">
<rect x="1" y="1" width="78" height="78" rx="39" fill="#FEB502"/>
<rect x="1" y="1" width="78" height="78" rx="39" stroke="white" stroke-width="2"/>
<g clip-path="url(#clip0_45_1426)">
<path d="M25.2953 44.4678C25.2953 45.5014 25.2953 46.4851 25.2953 47.4679C25.2953 48.3137 25.4382 48.4626 26.2664 48.4626C27.4507 48.4626 28.635 48.4643 29.8193 48.4626C30.4859 48.4617 30.6796 48.2706 30.6813 47.6134C30.683 46.5857 30.6813 45.5589 30.6813 44.4923C30.8411 44.483 30.9765 44.4695 31.1118 44.4695C32.7758 44.4678 34.4388 44.4669 36.1028 44.4695C36.7804 44.4703 36.9758 44.6691 36.9766 45.3559C36.9775 50.2769 36.9775 55.197 36.9766 60.118C36.9766 60.8022 36.7778 61.0002 36.0977 61.0002C30.6838 61.0002 25.2699 61.001 19.856 61.0002C19.2089 61.0002 19.0008 60.7912 19.0008 60.1374C18.9991 55.2029 18.9991 50.2676 19.0008 45.333C19.0008 44.675 19.2038 44.4703 19.8543 44.4695C21.6443 44.4669 23.4334 44.4695 25.2953 44.4695V44.4678ZM26.0862 53.162C26.2376 53.2829 26.3155 53.3607 26.4068 53.4148C26.702 53.5874 26.9854 53.5485 27.2088 53.299C27.4397 53.0402 27.4947 52.7272 27.2426 52.4599C26.79 51.9786 26.3172 51.5143 25.8367 51.0609C25.6049 50.8419 25.2953 50.8199 25.0652 51.0313C24.5568 51.4957 24.067 51.9829 23.6034 52.4912C23.3801 52.7365 23.419 53.0461 23.6449 53.2981C23.8733 53.5536 24.1516 53.5815 24.4468 53.4157C24.5483 53.359 24.6414 53.2863 24.775 53.1966C24.775 53.5629 24.775 53.8724 24.775 54.1812C24.775 54.983 24.7683 55.7857 24.7801 56.5875C24.7869 57.002 25.0161 57.2422 25.3892 57.2549C25.7411 57.2659 25.9915 57.1162 26.06 56.7516C26.0888 56.601 26.0854 56.4437 26.0854 56.2889C26.0871 55.2765 26.0862 54.2641 26.0862 53.1628V53.162ZM31.133 53.1729C31.2472 53.255 31.2903 53.2863 31.3326 53.3176C31.6938 53.5823 32.0263 53.5756 32.2741 53.2973C32.5364 53.0029 32.5051 52.6612 32.176 52.328C31.7996 51.9465 31.4214 51.5667 31.0382 51.1929C30.639 50.803 30.3344 50.7987 29.9453 51.1768C29.5816 51.5312 29.2254 51.8924 28.8668 52.2518C28.4709 52.6485 28.4133 52.9716 28.6815 53.2821C28.9539 53.5975 29.2762 53.5865 29.7195 53.2499C29.7355 53.2372 29.7694 53.2482 29.8345 53.2482C29.8345 53.381 29.8345 53.5172 29.8345 53.6534C29.8345 54.6261 29.8269 55.5996 29.8396 56.5723C29.8463 57.095 30.2592 57.386 30.7219 57.2177C31.0552 57.0967 31.1364 56.832 31.1355 56.5097C31.1313 55.4262 31.1338 54.3419 31.1338 53.1729H31.133Z" fill="white"/>
<path d="M49.2518 44.4881C49.2518 45.5564 49.2492 46.5705 49.2526 47.5855C49.2552 48.2858 49.4336 48.4626 50.1298 48.4635C51.4266 48.4643 52.7234 48.466 54.0202 48.4635C54.6327 48.4618 54.8222 48.2715 54.8247 47.6498C54.8289 46.6094 54.8256 45.5691 54.8256 44.5008C54.9837 44.4881 55.1056 44.4704 55.2274 44.4704C56.8625 44.4687 58.4977 44.4678 60.1329 44.4704C60.791 44.4704 60.9982 44.6733 60.9982 45.3221C60.9999 50.2566 60.9999 55.1903 60.9982 60.1248C60.9982 60.7625 60.7656 61.001 60.1413 61.001C54.7283 61.0019 49.3144 61.0019 43.9013 61.001C43.3092 61.001 43.0825 60.7786 43.0825 60.1814C43.0799 55.219 43.0799 50.2566 43.0825 45.2942C43.0825 44.6539 43.2745 44.4729 43.925 44.4712C45.5602 44.4687 47.1953 44.4695 48.8305 44.4704C48.954 44.4704 49.0775 44.4822 49.2509 44.4907L49.2518 44.4881ZM55.2257 53.1595C55.3636 53.2593 55.4363 53.3176 55.515 53.3675C55.8423 53.5756 56.1748 53.5485 56.3795 53.2677C56.5944 52.9734 56.6045 52.6689 56.3279 52.3923C55.91 51.9745 55.493 51.5558 55.0734 51.1388C54.8112 50.8783 54.4872 50.781 54.2046 51.0339C53.6912 51.4923 53.2065 51.9863 52.7412 52.4938C52.5145 52.7416 52.5559 53.0503 52.7877 53.2973C53.017 53.5418 53.2944 53.5874 53.5914 53.4149C53.6895 53.3582 53.7766 53.2821 53.9145 53.1814C53.9145 53.7397 53.9145 54.2311 53.9145 54.7225C53.9145 55.3138 53.9077 55.905 53.9179 56.4962C53.9263 57.0029 54.1514 57.2558 54.5675 57.2566C54.9863 57.2574 55.2138 56.9986 55.2257 56.5038C55.2291 56.349 55.2265 56.1943 55.2265 56.0395C55.2265 55.1031 55.2265 54.1668 55.2265 53.1586L55.2257 53.1595ZM50.1662 53.1569C50.2931 53.2584 50.3346 53.2948 50.3794 53.3278C50.7347 53.5874 51.0697 53.5714 51.3167 53.2829C51.5637 52.9954 51.5349 52.6579 51.2287 52.3466C50.8438 51.955 50.4598 51.5634 50.0664 51.1811C49.6663 50.7937 49.3677 50.7962 48.9768 51.1785C48.6554 51.4932 48.339 51.8146 48.021 52.1326C47.5134 52.6393 47.433 52.9091 47.6868 53.2457C47.9389 53.5798 48.2375 53.5798 48.8677 53.222V53.6509C48.8677 54.6075 48.8703 55.5641 48.866 56.5216C48.8643 56.9073 49.0014 57.183 49.4108 57.249C49.8608 57.3209 50.1611 57.0367 50.1637 56.5233C50.1704 55.4313 50.1654 54.3394 50.1654 53.1578L50.1662 53.1569Z" fill="white"/>
<path d="M39.337 38.7508C38.656 38.7508 38.0376 38.7356 37.4201 38.7559C37.0005 38.7694 36.74 38.5943 36.537 38.2374C35.7037 36.7665 34.8612 35.3007 34.006 33.8417C33.7911 33.4746 33.7725 33.165 33.9975 32.7852C34.8299 31.3795 35.6504 29.9653 36.438 28.5333C36.7104 28.0385 37.0454 27.7805 37.6138 27.8533C37.706 27.8651 37.8033 27.8364 37.9454 27.8211C37.6916 27.1479 37.4497 26.505 37.2078 25.8631C36.8897 25.0198 36.5632 24.179 36.2587 23.3307C36.169 23.0803 36.0446 22.9881 35.7722 22.9923C34.7292 23.0093 33.6854 23.0008 32.6423 22.9983C32.0206 22.9966 31.7964 22.7767 31.7939 22.1651C31.7905 21.3751 31.7896 20.586 31.7939 19.796C31.7973 19.2327 32.0274 19.0009 32.5924 19.0009C37.5275 18.9984 42.4618 18.9984 47.3969 19.0009C47.9679 19.0009 48.2005 19.2301 48.2039 19.7875C48.2098 20.5911 48.209 21.3946 48.2039 22.199C48.2005 22.7597 47.9679 22.9949 47.4062 22.9974C46.3344 23.0025 45.2626 22.9915 44.1917 23.0084C44.0589 23.0101 43.8483 23.1074 43.8077 23.2123C43.224 24.7077 42.6631 26.2124 42.098 27.7146C42.0887 27.7391 42.0972 27.7704 42.0972 27.8144C42.1463 27.8262 42.2021 27.8583 42.2503 27.8499C42.9719 27.7272 43.3407 28.1155 43.6715 28.7033C44.4379 30.0659 45.255 31.4006 46.0722 32.7345C46.2938 33.0957 46.2837 33.3934 46.0739 33.7503C45.2178 35.2085 44.3753 36.6743 43.5429 38.146C43.3229 38.5351 43.0269 38.7077 42.5828 38.6958C41.9635 38.6781 41.3443 38.6916 40.6608 38.6916C40.6608 39.3048 40.6608 39.8918 40.6608 40.4788C40.6608 41.1715 40.5179 41.3399 39.8403 41.4566C39.2481 41.5581 38.8599 42.0343 38.892 42.6179C38.9225 43.1787 39.4106 43.6523 39.9722 43.665C40.5365 43.6785 41.0178 43.2548 41.1016 42.6703C41.1075 42.6289 41.1058 42.5858 41.1109 42.5435C41.1701 42.1104 41.4162 41.8863 41.8045 41.9108C42.1928 41.9353 42.4423 42.2373 42.4296 42.6678C42.395 43.819 41.5008 44.795 40.3233 44.9684C39.1762 45.1367 38.0495 44.4254 37.6908 43.3055C37.3304 42.1789 37.816 40.9406 38.8886 40.4534C39.2769 40.2767 39.3776 40.0737 39.3412 39.6956C39.3133 39.4038 39.3353 39.106 39.3353 38.75L39.337 38.7508ZM42.5515 33.2936C42.5464 31.8785 41.4103 30.7527 39.9883 30.7553C38.5748 30.7578 37.4421 31.8997 37.4489 33.3173C37.4548 34.7298 38.601 35.8657 40.012 35.8589C41.4247 35.8513 42.5565 34.7086 42.5515 33.2936ZM37.5986 23.0203C37.6603 23.203 37.7052 23.3476 37.7585 23.4888C38.211 24.6865 38.6653 25.8842 39.1196 27.0819C39.4139 27.8592 39.4139 27.844 40.2294 27.8626C40.5449 27.8702 40.698 27.7797 40.8097 27.471C41.3037 26.1083 41.829 24.7567 42.3417 23.4009C42.3848 23.2858 42.4161 23.1657 42.4618 23.0194H37.5986V23.0203Z" fill="white"/>
<path d="M50.5801 47.059V44.4302H53.4977V47.059H50.5801Z" fill="white"/>
<path d="M29.3414 47.0709H26.6387V44.4243H29.3414V47.0709Z" fill="white"/>
<path d="M41.2501 33.2984C41.2543 33.9861 40.6715 34.5646 39.9854 34.5553C39.3129 34.5452 38.7563 33.9852 38.7496 33.3111C38.7436 32.6446 39.3028 32.0695 39.9719 32.0559C40.6605 32.0416 41.2459 32.6108 41.2501 33.2984Z" fill="white"/>
</g>
<defs>
<clipPath id="clip0_45_1426">
<rect width="42" height="42" fill="white" transform="translate(19 19)"/>
</clipPath>
</defs>
</svg>
