<svg width="80" height="80" viewBox="0 0 80 80" fill="none" xmlns="http://www.w3.org/2000/svg">
<rect x="1" y="1" width="78" height="78" rx="39" fill="#A7BD37"/>
<rect x="1" y="1" width="78" height="78" rx="39" stroke="white" stroke-width="2"/>
<g clip-path="url(#clip0_53_1559)">
<path d="M52.8948 44.6039C52.7506 44.4933 52.6007 44.3886 52.4681 44.2607C50.5944 42.4982 48.7206 40.7358 46.8584 38.9559C46.5413 38.6535 46.2069 38.5255 45.7745 38.5255C43.157 38.5371 40.5394 38.5371 37.9277 38.5255C36.4517 38.5255 35.3044 37.6588 34.9527 36.3035C34.8778 36.0069 34.8432 35.687 34.8432 35.3787C34.8374 31.6386 34.8374 27.8985 34.8432 24.1526C34.8432 22.2738 36.1001 21 37.9623 21C43.9353 21 49.9083 21 55.887 21C57.732 21 58.9946 22.2622 59.0004 24.1235C59.0119 27.8811 59.0061 31.6328 59.0004 35.3903C59.0004 37.2691 57.7377 38.5255 55.864 38.5371C55.2413 38.5371 54.6244 38.5371 54.0017 38.5371C53.3733 38.5429 53.0331 38.8861 53.0274 39.5318C53.0216 41.0673 53.0274 42.6088 53.0274 44.1443C53.0274 44.2723 53.0274 44.4061 53.0274 44.5341C52.987 44.5573 52.9409 44.5806 52.9005 44.6039H52.8948ZM46.9045 33.2382C48.6168 33.2382 50.3292 33.2382 52.0415 33.2382C52.6353 33.2382 53.0274 32.8775 53.0389 32.3424C53.0504 31.8073 52.6815 31.435 52.0934 31.3943C52.0011 31.3885 51.9031 31.3943 51.8109 31.3943C48.5476 31.3943 45.2902 31.3943 42.0269 31.3943C41.8424 31.3943 41.6464 31.4001 41.4677 31.4467C40.9546 31.5804 40.6778 32.133 40.8565 32.6332C41.0007 33.0288 41.3351 33.2382 41.854 33.2382C43.5375 33.2382 45.221 33.2382 46.9103 33.2382H46.9045ZM46.8757 27.9741C48.4669 27.9741 50.0582 27.9741 51.6437 27.9741C51.8455 27.9741 52.0473 27.9741 52.249 27.9509C52.7276 27.8927 53.0447 27.503 53.0331 27.026C53.0216 26.5723 52.6872 26.2059 52.2317 26.1477C52.1395 26.1361 52.0415 26.1419 51.9492 26.1419C48.5938 26.1419 45.2383 26.1419 41.8828 26.1419C41.7905 26.1419 41.6925 26.1419 41.6003 26.1477C41.1448 26.2001 40.8104 26.5665 40.7989 27.026C40.7874 27.5088 41.0987 27.8927 41.583 27.9567C41.7444 27.9799 41.9059 27.9799 42.0673 27.9799C43.6701 27.9799 45.2729 27.9799 46.8757 27.9799V27.9741Z" fill="white"/>
<path d="M33.0155 35.4952C33.0386 36.7574 33.4191 37.8451 34.2435 38.7641C35.1891 39.8169 36.371 40.3579 37.7835 40.3637C40.0609 40.3637 42.344 40.3637 44.6213 40.3637C44.7828 40.3637 44.9384 40.3637 45.1575 40.3637V40.8348C45.1575 43.8129 45.1575 46.7911 45.1575 49.775C45.1575 51.7643 43.9237 52.9974 41.9404 52.9974C39.3921 52.9974 36.8438 52.9974 34.2954 52.9974C33.8284 52.9974 33.4364 53.1544 33.0962 53.4744C31.2513 55.231 29.4063 56.9818 27.5556 58.7326C27.498 58.7908 27.4461 58.8547 27.3769 58.8955C27.2904 58.9478 27.1751 59.0234 27.1002 59.0002C27.0367 58.9769 27.0022 58.8315 26.9791 58.7384C26.9618 58.6628 26.9791 58.5755 26.9791 58.4941C26.9791 57.04 26.9791 55.58 26.9791 54.1258C26.9791 53.3173 26.662 53.0032 25.8433 52.9974C25.2783 52.9974 24.7133 52.9974 24.1425 52.9974C22.2514 52.9974 21.0061 51.7352 21.0061 49.8215C21.0061 46.6515 21.0061 43.4814 21.0061 40.3113C21.0061 39.7006 20.9946 39.084 21.0061 38.4733C21.0522 36.7632 22.2572 35.4952 23.9522 35.4777C26.9041 35.4428 29.856 35.4661 32.8137 35.4661C32.8656 35.4661 32.9175 35.4835 33.0155 35.4952ZM32.7157 44.1561C32.7157 44.6564 33.125 45.0635 33.6151 45.0577C34.1052 45.0519 34.5088 44.6273 34.4972 44.1329C34.4857 43.6501 34.0994 43.2662 33.6151 43.2604C33.1078 43.2604 32.7157 43.6501 32.7157 44.1561ZM38.8155 43.2604C38.3197 43.2604 37.9104 43.6733 37.9219 44.1619C37.9277 44.6331 38.3312 45.0403 38.7982 45.0519C39.2883 45.0635 39.6976 44.6564 39.7034 44.1561C39.7034 43.6443 39.3229 43.2546 38.8155 43.2546V43.2604ZM28.4089 43.2604C27.9016 43.2487 27.5037 43.6385 27.498 44.1445C27.498 44.6389 27.9073 45.0577 28.3916 45.0577C28.8586 45.0577 29.2622 44.6622 29.2795 44.1794C29.2968 43.6792 28.9105 43.2662 28.4089 43.2604Z" fill="white"/>
<path d="M27.077 29.2887C26.6619 29.2887 26.241 29.3003 25.8259 29.2887C25.2493 29.2654 24.8573 28.8641 24.8746 28.3406C24.8919 27.8287 25.2839 27.4623 25.8432 27.4506C26.6792 27.439 27.5151 27.439 28.3511 27.4506C28.9046 27.4564 29.2967 27.852 29.3024 28.358C29.3082 28.8641 28.9219 29.2596 28.3684 29.2829C27.936 29.3003 27.5036 29.2829 27.077 29.2829V29.2887Z" fill="white"/>
<path d="M53.1654 51.1243C53.5805 51.1243 54.0014 51.1185 54.4165 51.1243C54.97 51.1359 55.362 51.514 55.3678 52.0259C55.3736 52.5203 55.0161 52.9333 54.4799 52.9449C53.592 52.9682 52.6984 52.9682 51.8105 52.9449C51.2859 52.9275 50.9169 52.5028 50.9342 52.0143C50.9515 51.5198 51.3378 51.1418 51.8624 51.1243C52.2948 51.1127 52.7272 51.1243 53.1539 51.1243H53.1654Z" fill="white"/>
</g>
<defs>
<clipPath id="clip0_53_1559">
<rect width="38" height="38" fill="white" transform="translate(21 21)"/>
</clipPath>
</defs>
</svg>
