<svg width="80" height="80" viewBox="0 0 80 80" fill="none" xmlns="http://www.w3.org/2000/svg">
<rect x="1" y="1" width="78" height="78" rx="39" fill="#A7BD37"/>
<rect x="1" y="1" width="78" height="78" rx="39" stroke="white" stroke-width="2"/>
<g clip-path="url(#clip0_45_1381)">
<path d="M28.8733 28.2192C29.2194 31.4733 30.6433 34.121 33.2491 36.103C35.1413 37.5413 37.296 38.2902 39.6995 38.3427C42.6626 38.4072 45.2512 37.4658 47.4421 35.5203C49.62 33.5859 50.8226 31.1451 51.0955 28.2303C51.2074 28.2811 51.2849 28.3049 51.3503 28.3473C53.4026 29.6932 55.467 31.0221 57.5012 32.3943C59.3933 33.6715 59.507 36.1539 57.7672 37.6193C57.4194 37.9119 57.0475 38.1808 56.667 38.431C54.9031 39.5911 53.1297 40.7386 51.3633 41.8954C48.2478 43.9358 45.1332 45.9755 42.023 48.0227C40.686 48.903 39.3483 48.931 38.0088 48.0532C32.8057 44.644 27.601 41.2381 22.4092 37.8127C20.5575 36.5915 20.523 33.7182 22.3549 32.4732C24.4305 31.0628 26.5482 29.711 28.6487 28.3354C28.7055 28.2981 28.7692 28.2727 28.8733 28.2201V28.2192Z" fill="white"/>
<path d="M39.9645 18C45.8149 18.084 49.6466 22.3057 49.5278 27.7911C49.4185 32.8049 44.9833 37.0767 39.479 36.8011C34.3354 36.5432 30.2635 32.2011 30.4469 27.2508C30.6586 21.5204 34.8536 18.0848 39.9645 18ZM34.9466 27.3747C35.7902 26.6173 36.5994 25.9024 37.394 25.1714C37.7538 24.8406 37.7616 24.4174 37.4534 24.0807C37.1512 23.7508 36.7053 23.7152 36.3455 24.0341C35.3133 24.9492 34.2889 25.8736 33.2722 26.8064C32.9141 27.1347 32.921 27.5807 33.255 27.9352C33.3617 28.0489 33.4823 28.1498 33.5985 28.2541C34.4843 29.0564 35.3693 29.8587 36.2559 30.6601C36.5099 30.8899 36.7837 31.0553 37.1452 30.9001C37.7074 30.6593 37.8511 30.047 37.4086 29.6272C36.6166 28.8758 35.798 28.1507 34.9466 27.3747ZM45.035 27.3781C44.1845 28.1473 43.3778 28.8656 42.585 29.5975C42.2398 29.9163 42.2286 30.3718 42.5221 30.694C42.826 31.0273 43.2625 31.0596 43.6283 30.7339C44.6588 29.818 45.6823 28.8927 46.6964 27.959C47.0761 27.6096 47.0683 27.1686 46.6964 26.8047C46.4124 26.5266 46.1093 26.2679 45.8149 25.9999C45.1099 25.3596 44.4048 24.7193 43.6989 24.0782C43.4071 23.8127 43.0791 23.7169 42.7201 23.9247C42.4059 24.1062 42.2346 24.4047 42.3422 24.7465C42.4128 24.9712 42.6013 25.179 42.7821 25.3469C43.5104 26.022 44.2568 26.6784 45.035 27.3772V27.3781ZM41.1783 24.6506C41.199 24.2207 40.9097 23.8857 40.4767 23.8365C39.9895 23.7814 39.6624 24.0739 39.5806 24.6421C39.3249 26.4257 39.0692 28.21 38.8144 29.9935C38.7455 30.4786 38.9969 30.8425 39.4592 30.934C39.8776 31.0172 40.2564 30.7627 40.3528 30.2904C40.4432 29.8502 40.4905 29.4007 40.5551 28.9555C40.7625 27.5205 40.97 26.0847 41.1783 24.6498V24.6506Z" fill="white"/>
<path d="M22.0169 39.4048C23.2695 40.2274 24.5074 41.0399 25.7453 41.8532C29.608 44.3889 33.4698 46.9272 37.3342 49.4604C38.9293 50.5061 41.0935 50.4764 42.7274 49.4045C47.6645 46.164 52.6023 42.9269 57.5402 39.688C57.6711 39.6024 57.8045 39.5201 57.9681 39.4167C58.5552 39.9247 58.8677 40.5726 58.9391 41.3248C59.0691 42.7021 58.5896 43.7995 57.3887 44.5848C52.2563 47.9415 47.1325 51.3127 42.0043 54.6761C40.6863 55.5403 39.3494 55.57 38.0254 54.7033C32.8465 51.3118 27.671 47.9161 22.499 44.5153C20.7351 43.3551 20.4803 40.8236 22.0169 39.4048Z" fill="white"/>
<path d="M22.0296 46.058C26.4002 48.927 30.7544 51.7851 35.1086 54.6431C35.8481 55.1282 36.5695 55.6438 37.3305 56.095C39.1469 57.1712 40.9857 57.1703 42.7565 56.0178C47.3845 53.0054 51.9926 49.9625 56.6085 46.9332C57.0502 46.6432 57.4952 46.3599 57.9377 46.0749C58.8623 46.7526 59.235 48.2681 58.7882 49.5046C58.5446 50.1788 58.1288 50.7241 57.5254 51.1202C52.2905 54.5574 47.0599 58.0015 41.8121 61.4201C40.6276 62.1918 39.3526 62.1935 38.1681 61.4209C32.8962 57.9845 27.6355 54.5311 22.3843 51.0642C20.703 49.9549 20.5214 47.3157 22.0296 46.0571V46.058Z" fill="white"/>
</g>
<defs>
<clipPath id="clip0_45_1381">
<rect width="38" height="44" fill="white" transform="translate(21 18)"/>
</clipPath>
</defs>
</svg>
