<svg width="100" height="100" viewBox="0 0 100 100" fill="none" xmlns="http://www.w3.org/2000/svg">
<rect x="1" y="1" width="98" height="98" rx="49" fill="white"/>
<rect x="1" y="1" width="98" height="98" rx="49" stroke="#FEB502" stroke-width="2"/>
<path d="M75.7975 56.8535C75.5164 57.2679 75.1086 57.4883 74.6309 57.5833C73.9143 57.7245 73.4827 58.1125 73.3111 58.8569C73.199 59.3452 72.9548 59.811 72.7186 60.2597C72.4836 60.7085 72.4718 61.111 72.7027 61.5676C73.4128 62.9666 73.4022 62.9718 72.2883 64.0844C71.4542 64.9171 71.3078 64.9673 70.2876 64.3945C69.6647 64.0448 69.1236 63.9973 68.4927 64.3734C68.048 64.6387 67.5333 64.7997 67.0344 64.9594C66.5699 65.1072 66.2663 65.3698 66.1343 65.8449C65.6671 67.5289 65.4626 67.3468 64.0307 67.3494C62.8772 67.3508 62.7373 67.2835 62.4272 66.1828C62.2292 65.478 61.8623 65.0557 61.1378 64.8657C60.6046 64.7258 60.1044 64.4486 59.6003 64.2098C59.2294 64.0342 58.8863 64.0276 58.5194 64.2243C57.0281 65.024 57.0307 64.991 55.8416 63.7808C55.1184 63.0444 55.0445 62.8293 55.5631 61.9345C55.9604 61.2496 56.0039 60.653 55.579 59.9641C55.3164 59.5392 55.1844 59.0284 55.022 58.5467C54.8795 58.1244 54.634 57.8459 54.1972 57.7126C52.5647 57.2164 52.6439 57.1887 52.6518 55.535C52.6571 54.4476 52.731 54.2866 53.7788 54.0028C54.5258 53.8009 54.964 53.4102 55.1553 52.6474C55.2807 52.1446 55.5407 51.6708 55.7743 51.201C55.9657 50.8156 55.9855 50.4646 55.7783 50.0779C54.9587 48.547 55.0418 48.5786 56.2296 47.4027C56.9806 46.6597 57.1548 46.5951 58.072 47.1256C58.7583 47.5228 59.3601 47.5638 60.0476 47.1388C60.4594 46.8841 60.9477 46.7389 61.4176 46.5951C61.8874 46.4512 62.1738 46.1793 62.311 45.7069C62.7756 44.11 62.8957 44.1971 64.4213 44.2063C65.5616 44.2129 65.7081 44.2789 66.0156 45.3862C66.2135 46.0949 66.5764 46.5159 67.3102 46.6954C67.8131 46.8181 68.2895 47.0741 68.7567 47.3143C69.1777 47.5308 69.563 47.5347 69.9748 47.3143C71.3605 46.5779 71.383 46.5357 72.5708 47.7525C73.3481 48.5483 73.4101 48.6974 72.8532 49.6793C72.4797 50.3379 72.4401 50.9172 72.8466 51.5679C73.0696 51.9255 73.2333 52.3386 73.3283 52.7491C73.4906 53.4472 73.9037 53.8233 74.5834 53.9672C75.0915 54.0754 75.5626 54.2588 75.8002 54.7801V56.8548L75.7975 56.8535ZM59.1872 55.766C59.1819 58.5546 61.4004 60.7995 64.1798 60.814C66.9803 60.8286 69.2529 58.585 69.2648 55.7937C69.2767 53.0209 66.9856 50.7285 64.2088 50.7351C61.4387 50.7417 59.1938 52.9906 59.1885 55.766H59.1872Z" fill="#FEB502"/>
<path d="M25.2178 54.5806C25.2178 54.3682 25.2178 54.2058 25.2178 54.0435C25.2178 47.7232 25.2178 41.4029 25.2178 35.084C25.2178 33.3129 26.263 32.2637 28.0434 32.2637C39.153 32.2624 50.2613 32.2624 61.371 32.2637C63.1738 32.2637 64.2243 33.3155 64.2256 35.113C64.2282 37.4173 64.2256 39.7216 64.2256 42.0259C64.2256 42.1856 64.2256 42.3466 64.2256 42.563C63.9775 42.563 63.7848 42.559 63.5921 42.563C62.3027 42.5907 61.3829 43.2334 61.0041 44.4529C60.8682 44.8897 60.6807 45.1853 60.2215 45.2685C60.1898 45.2738 60.1555 45.283 60.1291 45.3002C59.4587 45.7225 58.845 45.7172 58.0914 45.349C57.2072 44.9188 56.2767 45.1484 55.5205 45.8135C55.0771 46.2042 54.6495 46.6212 54.2641 47.0686C53.4987 47.9581 53.3812 48.9638 53.9157 50.0024C54.1388 50.4353 54.1308 50.7745 53.9566 51.2351C53.6755 51.9794 53.3297 52.5073 52.4917 52.7396C51.8068 52.9296 51.366 53.5314 51.1548 54.2256C51.0677 54.5133 50.9516 54.611 50.6507 54.611C42.29 54.6031 33.9294 54.6044 25.5688 54.6031C25.4725 54.6031 25.3761 54.5899 25.2178 54.5793V54.5806ZM35.5118 43.8577C35.7151 43.7349 35.8655 43.6386 36.0212 43.5515C37.5838 42.6778 39.149 41.8094 40.7103 40.9344C41.2765 40.6164 41.4507 40.1716 41.2026 39.7282C40.9571 39.2887 40.4754 39.2016 39.9185 39.5117C37.8095 40.6863 35.6992 41.8609 33.5942 43.0421C32.7879 43.4947 32.7905 44.2021 33.6035 44.6588C35.7085 45.8413 37.8174 47.0172 39.9264 48.1917C40.4886 48.5045 40.965 48.4135 41.2079 47.9647C41.4494 47.516 41.2738 47.0911 40.6997 46.7664C39.6981 46.2016 38.6924 45.6433 37.6894 45.0824C36.9781 44.6838 36.268 44.284 35.5118 43.8603V43.8577ZM53.9421 43.8498C53.207 44.2615 52.5498 44.6311 51.8899 44.9993C50.7998 45.609 49.7044 46.2121 48.6182 46.8298C48.1431 47.1003 48.0046 47.5319 48.2236 47.9502C48.4493 48.3818 48.9139 48.4966 49.4141 48.2458C49.488 48.2089 49.5579 48.1667 49.6305 48.1271C51.6682 46.9881 53.7046 45.8465 55.7462 44.7129C56.1065 44.5136 56.4351 44.2985 56.4246 43.8313C56.4153 43.3892 56.0999 43.1846 55.7554 42.9946C53.6993 41.853 51.6484 40.7048 49.5949 39.5593C49.4655 39.488 49.3375 39.4088 49.1976 39.3639C48.7806 39.2293 48.4414 39.3613 48.2329 39.7401C48.0217 40.1228 48.1049 40.4831 48.4454 40.751C48.6499 40.912 48.8928 41.0255 49.1224 41.1535C50.6982 42.0364 52.2753 42.9193 53.9408 43.8511L53.9421 43.8498ZM46.925 37.837C46.9224 37.3223 46.5621 36.966 46.1054 36.9686C45.662 36.9712 45.402 37.222 45.2727 37.7842C44.7461 40.074 44.2208 42.365 43.6956 44.6561C43.3102 46.3375 42.9209 48.0188 42.5421 49.7028C42.4352 50.1766 42.686 50.599 43.107 50.7138C43.5385 50.8312 43.9437 50.5937 44.1034 50.1304C44.1351 50.0367 44.1588 49.9404 44.1799 49.8454C44.8979 46.7215 45.6158 43.599 46.3311 40.4752C46.537 39.5777 46.735 38.6803 46.925 37.8383V37.837Z" fill="#FEB502"/>
<path d="M25.2182 56.2725H50.9679C50.9811 56.3516 50.9995 56.4269 51.0048 56.5021C51.0787 57.7598 51.7016 58.6256 52.8907 58.9925C53.3315 59.1284 53.6087 59.3224 53.709 59.7777C53.7512 59.9664 53.8225 60.1684 53.9386 60.3188C54.3306 60.8282 54.093 61.2756 53.8264 61.7164C53.7723 61.8062 53.6324 61.8603 53.5216 61.892C53.4147 61.921 53.2933 61.8986 53.1771 61.8986C44.8323 61.8986 36.4889 61.8722 28.1441 61.9197C26.34 61.9302 25.0915 60.6633 25.2077 58.9885C25.2684 58.1056 25.2182 57.2148 25.2182 56.2725Z" fill="#FEB502"/>
<path d="M44.732 68.2073C41.9513 68.2073 39.1706 68.2086 36.3912 68.2073C35.7801 68.2073 35.4357 67.9539 35.3816 67.4894C35.3196 66.9536 35.6693 66.5761 36.2803 66.5669C37.2675 66.551 38.256 66.5378 39.2419 66.5735C39.6536 66.588 39.8186 66.4389 39.9347 66.0693C40.1617 65.3487 40.4507 64.6493 40.6804 63.93C40.7794 63.6199 40.9417 63.5407 41.2492 63.542C43.5522 63.5539 45.8564 63.5552 48.1594 63.542C48.4867 63.5407 48.6556 63.6172 48.7599 63.9525C48.9842 64.673 49.2904 65.3685 49.5069 66.0904C49.6256 66.4851 49.8262 66.5827 50.2129 66.5708C51.1499 66.5431 52.0883 66.559 53.0266 66.5629C53.6852 66.5669 54.0521 66.8533 54.0666 67.36C54.0811 67.8906 53.701 68.2073 53.0266 68.2073C50.2631 68.21 47.4982 68.2073 44.7346 68.2073H44.732Z" fill="#FEB502"/>
<path d="M64.2166 52.3794C66.1012 52.3781 67.607 53.872 67.6176 55.754C67.6281 57.6531 66.1091 59.1906 64.2179 59.1933C62.3412 59.1959 60.7865 57.6307 60.8024 55.7566C60.8195 53.8866 62.3399 52.382 64.2152 52.3794H64.2166Z" fill="#FEB502"/>
</svg>
