<svg width="100" height="100" viewBox="0 0 100 100" fill="none" xmlns="http://www.w3.org/2000/svg">
<circle cx="50" cy="50" r="49.5" fill="#002FA7" stroke="white"/>
<g clip-path="url(#clip0_45_1119)">
<path d="M47.3615 34.8895C44.0173 32.735 40.7424 30.6252 37.3751 28.4548C40.7222 26.2989 44.0043 24.1847 47.3947 22C47.3947 22.867 47.3947 23.6144 47.3947 24.3619C47.3947 24.6139 47.3933 24.8645 47.3947 25.1165C47.402 25.8827 47.535 25.9662 48.3013 26.0829C50.0247 26.3435 51.7988 26.4732 53.4499 26.983C63.6821 30.1398 70.1782 36.8496 72.1677 47.4218C74.5895 60.2926 66.5926 72.763 53.9878 76.1575C44.1965 78.7945 33.7272 75.1134 27.8109 66.9563C27.6793 66.7734 27.5535 66.5876 27.5015 66.3456C27.7892 66.6942 28.0682 67.0513 28.3646 67.3912C32.4231 72.0372 37.5385 74.7577 43.6616 75.4677C51.5009 76.3764 58.2385 74.0117 63.5014 68.1156C71.1166 59.5826 71.3956 47.1871 63.9149 38.6973C60.3205 34.6188 55.7965 32.1604 50.3732 31.4216C49.643 31.3222 48.8999 31.302 48.1625 31.2761C47.6044 31.256 47.4135 31.4489 47.4034 32.012C47.389 32.7667 47.4005 33.5213 47.3976 34.276C47.3976 34.4488 47.3803 34.6231 47.3658 34.8909L47.3615 34.8895Z" fill="white"/>
<path d="M47.0087 71.6757V71.0651C47.0087 66.1282 47.013 61.1899 47 56.253C47 55.8541 47.094 55.6193 47.467 55.4091C51.7293 53.0054 55.9772 50.5802 60.2309 48.1607C60.3827 48.0743 60.5388 47.998 60.7658 47.8784V48.4674C60.7658 53.4043 60.7644 58.3427 60.7702 63.2796C60.7702 63.6022 60.7311 63.8312 60.4015 64.0198C56.0423 66.5055 51.6932 69.01 47.3412 71.5101C47.266 71.5533 47.1851 71.5893 47.0087 71.6757Z" fill="white"/>
<path d="M41.4234 53.2444C42.8967 54.0696 44.263 54.8286 45.6163 55.6063C45.7219 55.6668 45.8028 55.867 45.8028 56.0023C45.8115 61.2474 45.8101 66.4925 45.8101 71.8024C45.6438 71.7275 45.5151 71.6843 45.3995 71.6181C40.9824 69.0805 36.5683 66.5386 32.1484 64.0054C31.8881 63.8556 31.7681 63.6972 31.7695 63.3789C31.7811 58.3484 31.7768 53.3179 31.7782 48.2874C31.7782 48.1678 31.7898 48.0483 31.7999 47.8467C32.8004 48.4083 33.6983 49.0276 34.6829 49.4337C35.8887 49.9306 36.3471 50.6752 36.1808 51.9728C36.0536 52.9622 36.1663 53.9818 36.1504 54.987C36.1446 55.3903 36.282 55.6553 36.6478 55.854C37.8811 56.5251 39.0985 57.2236 40.326 57.9063C41.0287 58.2965 41.4162 58.0661 41.4205 57.2495C41.4263 55.9591 41.422 54.6688 41.422 53.2444H41.4234Z" fill="white"/>
<path d="M50.6407 41.2923C48.9549 42.2558 47.3645 43.1645 45.7726 44.0718C42.8954 45.7122 40.0153 47.3468 37.1453 48.9972C36.8417 49.1715 36.6161 49.1844 36.3096 49.0058C35.1905 48.3535 34.0512 47.7342 32.922 47.0991C32.7716 47.0141 32.6299 46.9147 32.4116 46.7765C33.0304 46.4193 33.5842 46.0982 34.1394 45.7784C38.0229 43.5419 41.9108 41.3125 45.7856 39.0615C46.1673 38.8397 46.4362 38.8627 46.8006 39.0802C48.0339 39.819 49.2918 40.5189 50.6393 41.2909L50.6407 41.2923Z" fill="white"/>
<path d="M42.1015 52.2364C43.2293 51.5912 44.3007 50.9763 45.3749 50.3642C48.7524 48.4401 52.1328 46.5247 55.5016 44.5877C55.8471 44.3889 56.0944 44.4034 56.4283 44.6035C57.6443 45.3323 58.8805 46.0264 60.1846 46.7782C59.962 46.9164 59.8058 47.0201 59.6424 47.1137C55.3743 49.5447 51.1048 51.9729 46.841 54.4125C46.5258 54.5925 46.2858 54.6069 45.9648 54.4197C44.7069 53.6867 43.4317 52.9853 42.1001 52.2379L42.1015 52.2364Z" fill="white"/>
<path d="M37.9478 49.9177C38.9844 49.3243 39.93 48.78 40.877 48.2399C44.3904 46.2352 47.9067 44.2377 51.4114 42.22C51.7396 42.0313 51.9738 42.0371 52.289 42.2315C53.0611 42.7111 53.8577 43.1503 54.7007 43.6386C54.5214 43.7538 54.4101 43.8359 54.2901 43.9036C49.9656 46.3706 45.6382 48.8333 41.3194 51.3118C40.9782 51.5076 40.7267 51.5076 40.3941 51.3046C39.6278 50.838 38.8341 50.416 37.9478 49.9163V49.9177Z" fill="white"/>
<path d="M40.2164 56.4691C39.2534 55.9305 38.3816 55.4466 37.517 54.9497C37.4403 54.9065 37.3709 54.7798 37.3695 54.6905C37.3594 53.4793 37.3637 52.2681 37.3637 50.9619C38.3165 51.4977 39.1884 51.983 40.0544 52.4813C40.131 52.5259 40.2106 52.6455 40.2106 52.7304C40.2207 53.9402 40.2178 55.1514 40.2178 56.4691H40.2164Z" fill="white"/>
</g>
<defs>
<clipPath id="clip0_45_1119">
<rect width="55" height="55" fill="white" transform="translate(22 22)"/>
</clipPath>
</defs>
</svg>
