<svg width="80" height="80" viewBox="0 0 80 80" fill="none" xmlns="http://www.w3.org/2000/svg">
<rect x="1" y="1" width="78" height="78" rx="39" fill="#A7BD37"/>
<rect x="1" y="1" width="78" height="78" rx="39" stroke="white" stroke-width="2"/>
<g clip-path="url(#clip0_45_1397)">
<path d="M45.4143 44.3733C46.9793 44.797 48.5217 45.213 50.0641 45.6304C50.5857 45.7716 51.1074 45.9178 51.629 46.0616C53.9232 46.6957 55.2155 48.2339 55.617 50.5664C55.7696 51.4553 55.8947 52.3492 56.0348 53.2394C56.1737 54.1169 55.936 54.5569 55.1029 54.9125C52.6223 55.9728 50.0516 56.7369 47.4108 57.2601C39.7313 58.7832 32.2882 57.9195 25.0565 54.978C24.0407 54.5645 23.7968 54.1005 23.9881 53.0149C24.1445 52.1273 24.2984 51.2385 24.456 50.3508C24.8463 48.1507 26.1285 46.7273 28.2326 46.1019C30.1678 45.5282 32.1318 45.0567 34.0733 44.5032C34.5148 44.3771 34.685 44.4628 34.8501 44.8915C36.3387 48.7408 37.8511 52.58 39.356 56.4217C39.371 56.4607 39.371 56.5112 39.3973 56.5402C39.6037 56.7734 39.8138 57.0016 40.024 57.2324C40.2154 57.0105 40.4806 56.8188 40.5869 56.5616C41.1936 55.0902 41.7628 53.6025 42.3433 52.1198C43.2827 49.7204 44.2197 47.3211 45.1604 44.9218C45.2279 44.7503 45.3142 44.5864 45.4131 44.3721L45.4143 44.3733Z" fill="white"/>
<path d="M46.8779 28.9331C46.8641 29.1853 46.9041 29.4538 46.8278 29.6846C46.5501 30.5255 46.9279 31.1534 47.4383 31.7397C48.389 32.8315 48.0763 34.5185 46.7766 35.1729C46.1211 35.5032 45.6745 35.9773 45.3054 36.6367C44.7588 37.6151 44.1546 38.6061 43.384 39.4067C41.3675 41.5022 38.5091 41.4593 36.5301 39.3222C35.8158 38.5506 35.2366 37.6239 34.7362 36.6909C34.3559 35.9823 33.8756 35.4881 33.1775 35.1414C31.9704 34.5412 31.6414 32.7988 32.5371 31.7876C33.0762 31.1786 33.3327 30.5268 33.2201 29.6732C32.7572 26.1228 35.1778 22.822 38.7355 22.126C42.2706 21.4351 45.7007 23.6503 46.6314 27.1945C46.7791 27.758 46.8291 28.3468 46.9229 28.9243C46.9066 28.9281 46.8916 28.9306 46.8754 28.9344L46.8779 28.9331Z" fill="white"/>
<path d="M23.3061 51.0958C20.2713 51.1689 17.3929 50.5977 14.5982 49.5462C14.3643 49.458 14.0791 49.4126 13.919 49.2474C13.7163 49.0369 13.4887 48.7191 13.4999 48.4569C13.5249 47.8555 13.68 47.2578 13.7964 46.6615C14.0316 45.4574 14.7484 44.6707 15.9042 44.3277C17.0814 43.9797 18.2698 43.6708 19.4594 43.3733C19.6483 43.3266 19.916 43.3708 20.0774 43.4792C22.0301 44.793 23.9641 44.7816 25.9055 43.4615C26.0319 43.3758 26.2233 43.2838 26.3534 43.3178C27.6568 43.6582 28.9541 44.0251 30.2688 44.5118C29.6771 44.682 29.0917 44.8737 28.495 45.0199C25.5615 45.7398 23.859 47.5857 23.4249 50.6066C23.4036 50.7516 23.3561 50.8915 23.3061 51.0958Z" fill="white"/>
<path d="M49.715 44.3819C51.0135 44.0226 52.3095 43.6544 53.6129 43.3191C53.7543 43.2825 53.9632 43.4061 54.1096 43.5032C56.0198 44.7703 57.9199 44.7741 59.8401 43.5132C60.0303 43.3884 60.343 43.3455 60.5669 43.3998C61.7191 43.6797 62.8649 43.9873 64.0058 44.3139C65.1929 44.6543 65.9272 45.4423 66.1662 46.6728C66.2787 47.249 66.3701 47.829 66.4789 48.4065C66.5552 48.8124 66.4339 49.1049 66.0423 49.2676C63.1614 50.4679 60.1691 51.1172 57.0455 51.0857C56.8979 51.0844 56.6515 50.8171 56.6252 50.6469C56.4125 49.2663 55.9384 48.0181 54.989 46.9716C54.087 45.9769 52.9674 45.3767 51.6852 45.0514C51.021 44.8825 50.3605 44.6946 49.6987 44.5156C49.705 44.4715 49.71 44.4261 49.7162 44.3819H49.715Z" fill="white"/>
<path d="M22.9523 29.7891C25.3554 29.7753 27.2405 31.8985 26.8878 34.2701C26.8052 34.821 27.0266 35.1968 27.3231 35.5851C27.801 36.2079 27.6171 36.9506 26.9741 37.3918C26.5976 37.6503 26.2948 38.0336 26.0021 38.3967C25.533 38.9779 25.1777 39.6739 24.6361 40.1694C23.6291 41.0923 22.2205 41.0558 21.2435 40.0988C20.7319 39.597 20.3891 38.9237 19.9388 38.3538C19.6623 38.0046 19.3671 37.6377 19.0043 37.3944C18.3388 36.9468 18.1324 36.1991 18.6391 35.6002C19.0206 35.1488 19.1057 34.6672 19.0681 34.0885C18.913 31.7043 20.6481 29.8043 22.9511 29.7904L22.9523 29.7891Z" fill="white"/>
<path d="M60.8996 34.1112C60.747 34.6621 60.9621 35.1866 61.3887 35.6847C61.7928 36.1549 61.6176 37.0287 61.0647 37.3086C60.5343 37.5784 60.2016 37.9756 59.9189 38.495C59.6224 39.0397 59.2559 39.5705 58.8218 40.0093C57.7622 41.0809 56.2648 41.1125 55.1853 40.0635C54.7012 39.5932 54.3859 38.9502 53.9619 38.4105C53.6729 38.0449 53.3739 37.6553 52.9974 37.3981C52.3219 36.9392 52.148 36.2129 52.6659 35.5498C52.9874 35.1375 53.1325 34.7227 53.0549 34.1616C52.7484 31.9501 54.5623 29.866 56.8028 29.7929C59.1871 29.7147 61.0109 31.5908 60.8983 34.1112H60.8996Z" fill="white"/>
<path d="M40.0048 55.4193C39.3368 53.7109 38.7176 52.1601 38.1321 50.5967C38.0608 50.4076 38.1434 50.1428 38.1997 49.9247C38.4686 48.8908 38.7463 47.8582 39.0378 46.8294C39.1779 46.3326 39.1692 45.9922 38.5362 45.8712C37.9908 45.7678 37.683 44.976 37.9758 44.5045C38.0583 44.3721 38.3173 44.2939 38.4962 44.2901C39.4544 44.2699 40.4138 44.275 41.3733 44.2826C41.671 44.2851 42.0551 44.188 42.0976 44.6583C42.1401 45.1248 42.1527 45.5963 41.6123 45.8359C40.7929 46.199 40.7954 46.204 41.0543 47.108C41.0718 47.1686 41.0894 47.2291 41.1031 47.2896C41.3546 48.4193 41.8662 49.5704 41.7836 50.6749C41.7011 51.7743 41.0193 52.8283 40.6002 53.9013C40.4251 54.3489 40.2487 54.7965 40.0035 55.4181L40.0048 55.4193Z" fill="white"/>
</g>
<defs>
<clipPath id="clip0_45_1397">
<rect width="53" height="36" fill="white" transform="translate(13.5 22)"/>
</clipPath>
</defs>
</svg>
