<svg width="80" height="80" viewBox="0 0 80 80" fill="none" xmlns="http://www.w3.org/2000/svg">
<rect x="1" y="1" width="78" height="78" rx="39" fill="#002FA7"/>
<rect x="1" y="1" width="78" height="78" rx="39" stroke="white" stroke-width="2"/>
<g clip-path="url(#clip0_45_1477)">
<path d="M39.9854 38.2549C34.6254 38.2549 30.2654 33.8749 30.2754 28.5049C30.2754 23.1549 34.6554 18.7949 40.0154 18.7949C45.3754 18.7949 49.7354 23.1749 49.7254 28.5449C49.7254 33.9049 45.3354 38.2649 39.9754 38.2549H39.9854ZM41.0554 32.8349C42.1854 32.4949 43.1554 31.8749 43.2654 30.4549C43.3954 28.7949 42.3654 28.0949 40.9554 27.7849V25.4049C41.3354 25.6049 41.6654 25.7749 41.9754 25.9549C42.3654 26.1749 42.7454 26.0849 42.9654 25.7049C43.1654 25.3549 43.1054 24.9649 42.6854 24.6949C42.1454 24.3449 41.5454 24.0849 40.9454 23.7749C40.8854 22.9749 40.6954 22.6749 40.2054 22.6549C39.6954 22.6349 39.4754 22.9449 39.3754 23.8549C39.2254 23.8849 39.0554 23.9249 38.8954 23.9649C37.7054 24.2449 36.9354 25.1149 36.8554 26.2749C36.7754 27.4149 37.4054 28.3249 38.5854 28.7549C38.7754 28.8249 38.9754 28.8549 39.1654 28.9249C39.2654 28.9649 39.3954 29.0649 39.4054 29.1449C39.4254 29.8949 39.4154 30.6549 39.4154 31.5849C38.8454 31.2549 38.3854 31.0149 37.9454 30.7349C37.5154 30.4649 37.1854 30.4849 36.9154 30.8149C36.6254 31.1749 36.6454 31.6449 37.0554 31.9149C37.5354 32.2449 38.0654 32.5049 38.5954 32.7549C38.8354 32.8649 39.1254 32.8849 39.3854 32.9349C39.5154 34.1549 39.6454 34.4049 40.1754 34.3749C40.3554 34.3749 40.6254 34.3049 40.6754 34.1849C40.8454 33.7649 40.9254 33.3249 41.0654 32.8249L41.0554 32.8349Z" fill="white"/>
<path d="M40.7949 44.7749C41.5949 46.0949 42.3249 47.3249 43.0649 48.5549C43.8249 49.8249 44.8249 50.1649 46.2049 49.6249C49.9349 48.1749 53.6549 46.7149 57.3749 45.2549C57.5449 45.1849 57.7249 45.1249 57.9449 45.0349C57.9549 45.2149 57.9749 45.3649 57.9749 45.5049C57.9749 47.9049 57.9749 50.3049 57.9749 52.7049C57.9749 53.9549 57.5149 54.6549 56.3549 55.1049C51.2549 57.1049 46.1549 59.1049 41.0549 61.0949C40.9849 61.1249 40.9149 61.1449 40.7949 61.1849V44.7549V44.7749Z" fill="white"/>
<path d="M39.2352 44.895V61.205C38.1852 60.795 37.1752 60.405 36.1652 60.015C31.9952 58.385 27.8152 56.745 23.6452 55.115C22.5252 54.675 22.0352 53.965 22.0352 52.755C22.0352 50.335 22.0352 47.925 22.0352 45.505V45.025C22.9652 45.385 23.8452 45.725 24.7252 46.075C27.7552 47.265 30.7852 48.445 33.8052 49.635C35.1452 50.165 36.1752 49.825 36.9152 48.595C37.6652 47.355 38.4052 46.115 39.1452 44.875C39.1752 44.885 39.1952 44.895 39.2252 44.905L39.2352 44.895Z" fill="white"/>
<path d="M41.1348 42.3648C46.3848 40.3148 51.6248 38.2548 56.8948 36.1948C57.3848 37.0048 57.8648 37.8048 58.3448 38.6048C58.9148 39.5548 59.4848 40.4948 60.0448 41.4548C60.4248 42.0848 60.2848 42.5048 59.5948 42.7748C54.9148 44.6048 50.2348 46.4448 45.5548 48.2748C45.0148 48.4848 44.7048 48.4048 44.4348 47.9448C43.3448 46.1448 42.2748 44.3348 41.1948 42.5348C41.1748 42.4948 41.1648 42.4548 41.1348 42.3748V42.3648Z" fill="white"/>
<path d="M23.1149 36.1948C28.3749 38.2548 33.6149 40.3048 38.8849 42.3648C38.8049 42.5248 38.7449 42.6448 38.6749 42.7548C37.6649 44.4348 36.6549 46.1248 35.6449 47.8048C35.2849 48.3948 35.0149 48.4848 34.3649 48.2348C29.7149 46.4148 25.0649 44.5948 20.4149 42.7648C19.7249 42.4948 19.5749 42.0848 19.9549 41.4548C20.9549 39.7848 21.9549 38.1148 22.9549 36.4448C23.0049 36.3648 23.0549 36.2948 23.1249 36.1948H23.1149Z" fill="white"/>
<path d="M54.5955 35.4851C53.2955 35.9951 52.0855 36.4751 50.8655 36.9451C47.4155 38.2951 43.9655 39.6351 40.5155 41.0051C40.1355 41.1551 39.8255 41.1351 39.4555 40.9951C34.8955 39.1951 30.3255 37.4151 25.7555 35.6351C25.6655 35.6051 25.5855 35.5651 25.3955 35.4751C26.3055 35.2751 27.1155 35.0851 27.9155 34.9151C28.6155 34.7651 29.3155 34.6251 30.0155 34.4551C30.3255 34.3751 30.4855 34.4751 30.6555 34.7351C32.9755 38.0751 36.1755 39.8251 40.2555 39.7451C44.0855 39.6651 47.0855 37.9251 49.2755 34.7951C49.5055 34.4651 49.6955 34.3951 50.0755 34.4851C51.4055 34.8051 52.7555 35.0751 54.0855 35.3751C54.2155 35.4051 54.3555 35.4451 54.5855 35.5051L54.5955 35.4851Z" fill="white"/>
<path d="M39.3947 27.385C38.6347 27.175 38.3247 26.815 38.3647 26.275C38.4047 25.785 38.7747 25.455 39.3947 25.375V27.385Z" fill="white"/>
<path d="M40.9453 31.285V29.415C41.4453 29.535 41.7553 29.865 41.7553 30.325C41.7553 30.825 41.4353 31.085 40.9453 31.285Z" fill="white"/>
</g>
<defs>
<clipPath id="clip0_45_1477">
<rect width="40.51" height="42.41" fill="white" transform="translate(19.7451 18.7949)"/>
</clipPath>
</defs>
</svg>
