<svg width="80" height="80" viewBox="0 0 80 80" fill="none" xmlns="http://www.w3.org/2000/svg">
<rect x="1" y="1" width="78" height="78" rx="39" fill="#A7BD37"/>
<rect x="1" y="1" width="78" height="78" rx="39" stroke="white" stroke-width="2"/>
<g clip-path="url(#clip0_53_1555)">
<path d="M42.7802 46.959C43.2265 48.0195 43.6357 49.0243 44.082 50.0105C44.2494 50.3826 44.268 50.7175 43.9146 50.9966C43.6171 51.2385 43.2637 51.1827 42.8918 50.8478C41.5527 49.6383 40.2322 48.4289 38.8932 47.2381C38.7258 47.0892 38.4468 46.9776 38.2051 46.9776C36.9962 46.959 35.7687 46.9776 34.5599 46.9776C32.0677 46.9776 30.2637 45.1727 30.2451 42.6608C30.2451 40.8931 30.2451 39.1255 30.2451 37.3578C30.2451 34.8645 32.0491 33.0596 34.5599 33.041C38.1865 33.041 41.8131 33.041 45.4397 33.041C47.9318 33.041 49.7358 34.8459 49.7544 37.3578C49.7544 39.1255 49.7544 40.8931 49.7544 42.6608C49.7544 45.1541 47.9504 46.959 45.4397 46.959C44.5842 46.959 43.7287 46.959 42.7988 46.959H42.7802Z" fill="white"/>
<path d="M27.4742 40.3161C27.4742 41.9908 27.4742 43.684 27.4742 45.3586C27.4742 46.4006 26.9163 46.9588 25.8748 46.9216C25.1123 46.9216 24.3312 46.9216 23.5873 46.7541C21.8019 46.3448 20.5372 44.7074 20.5 42.8653C20.5 41.9163 20.5 40.9488 20.5 39.9998C20.5 39.3114 20.8162 38.7532 21.2625 38.2322C22.118 37.246 23.1781 36.5576 24.3312 35.9807C24.6102 35.8319 24.6845 35.683 24.7031 35.3853C24.8333 28.2031 30.2268 21.9326 37.3126 20.7231C45.5887 19.3276 53.2697 24.5375 54.9993 32.7618C55.1853 33.6363 55.2225 34.548 55.2969 35.4411C55.3154 35.7016 55.3898 35.8505 55.6316 35.9621C56.6545 36.4831 57.6216 37.0972 58.4399 37.9159C59.1466 38.6229 59.5558 39.4416 59.5 40.4836C59.4256 41.4884 59.5372 42.5304 59.3884 43.5165C59.128 45.4144 57.417 46.8658 55.5014 46.9402C55.0179 46.9402 54.5529 46.9402 54.0694 46.9402C53.1023 46.9402 52.5257 46.382 52.5257 45.3958C52.5257 42.1954 52.5629 39.0137 52.5257 35.8133C52.4514 31.236 50.4986 27.6449 46.6488 25.1701C39.1724 20.3882 28.9621 25.0213 27.6416 33.8037C27.53 34.5108 27.4928 35.2551 27.4742 35.9621C27.4557 37.4135 27.4742 38.8648 27.4742 40.3161Z" fill="white"/>
<path d="M53.9024 48.3545H56.6921C56.4504 50.2896 55.7623 52.02 54.5906 53.5458C52.3216 56.5043 49.3087 58.0115 45.5705 58.1045C45.3846 58.1045 45.1986 58.1045 45.0126 58.1045C44.3059 58.0487 43.7107 58.1045 43.2086 58.7743C42.7994 59.3139 42.1113 59.5 41.4046 59.5C40.4561 59.5 39.5262 59.5 38.5777 59.5C37.0341 59.4814 35.8252 58.2347 35.8252 56.7276C35.8252 55.2018 37.0341 53.9738 38.5777 53.9366C39.5076 53.9366 40.4375 53.9366 41.3674 53.9366C42.2973 53.9366 43.0598 54.3273 43.5992 55.0716C43.7479 55.2762 43.8967 55.3321 44.1385 55.3321C45.6263 55.3507 47.1328 55.3693 48.5462 54.7739C51.3731 53.6202 53.1771 51.5735 53.8467 48.5778C53.8467 48.522 53.8839 48.4661 53.9024 48.3731V48.3545Z" fill="white"/>
</g>
<defs>
<clipPath id="clip0_53_1555">
<rect width="39" height="39" fill="white" transform="translate(20.5 20.5)"/>
</clipPath>
</defs>
</svg>
