<svg width="1967" height="834" viewBox="0 0 1967 834" fill="none" xmlns="http://www.w3.org/2000/svg">
<g clip-path="url(#clip0_6866_2826)">
<path fill-rule="evenodd" clip-rule="evenodd" d="M1786.94 473.797C1886.31 473.797 1966.87 554.347 1966.87 653.727C1966.87 753.107 1886.32 833.657 1786.94 833.657C1687.56 833.657 1607.01 753.107 1607.01 653.727C1607.01 554.347 1687.56 473.797 1786.94 473.797Z" fill="#002FA6"/>
<path fill-rule="evenodd" clip-rule="evenodd" d="M89.96 0C139.65 0 179.92 40.28 179.92 89.96C179.92 139.64 139.64 179.92 89.96 179.92C40.28 179.92 0 139.65 0 89.96C0 40.27 40.28 0 89.96 0Z" fill="#FFEC00"/>
<path d="M152.39 248.759V286.699H35.2402V248.759H152.39ZM64.2502 199.109H117.81V389.349C117.81 395.179 118.58 399.639 120.13 402.739C121.68 405.839 124 407.979 127.1 409.159C130.2 410.339 134.1 410.929 138.82 410.929C142.17 410.929 145.17 410.779 147.84 410.469C150.5 410.159 152.77 409.819 154.63 409.449L154.82 448.869C150.23 450.359 145.27 451.539 139.94 452.399C134.61 453.269 128.72 453.699 122.27 453.699C110.49 453.699 100.23 451.749 91.4902 447.839C82.7502 443.929 76.0202 437.639 71.3102 428.959C66.6002 420.279 64.2402 408.879 64.2402 394.739V199.109H64.2502Z" fill="#1A1A18"/>
<path d="M218.76 248.76L248.7 397.71L251.49 449.96H218.02L167.07 248.75H218.77L218.76 248.76ZM239.96 397.9L281.8 248.76H315.83L304.86 307.34L263.02 449.97H234.57L239.96 397.9ZM320.48 248.76L362.13 396.78L367.89 449.96H339.25L297.41 307.52L286.81 248.76H320.47H320.48ZM354.13 395.3L383.33 248.76H435.21L384.26 449.97H350.97L354.13 395.3Z" fill="#1A1A18"/>
<path d="M453.8 351.409V347.509C453.8 332.759 455.91 319.149 460.12 306.689C464.33 294.229 470.47 283.419 478.53 274.239C486.59 265.069 496.5 257.909 508.28 252.759C520.06 247.619 533.57 245.039 548.82 245.039C564.07 245.039 577.64 247.609 589.55 252.759C601.45 257.909 611.46 265.069 619.58 274.239C627.7 283.419 633.87 294.229 638.08 306.689C642.29 319.149 644.4 332.759 644.4 347.509V351.409C644.4 366.039 642.29 379.579 638.08 392.039C633.86 404.499 627.7 415.349 619.58 424.579C611.46 433.819 601.51 440.979 589.73 446.059C577.95 451.139 564.44 453.679 549.19 453.679C533.94 453.679 520.4 451.139 508.56 446.059C496.72 440.979 486.74 433.819 478.62 424.579C470.5 415.349 464.33 404.499 460.12 392.039C455.9 379.579 453.8 366.039 453.8 351.409ZM507.35 347.509V351.409C507.35 359.839 508.09 367.709 509.58 375.029C511.07 382.349 513.45 388.759 516.74 394.279C520.02 399.799 524.33 404.109 529.66 407.199C534.99 410.299 541.5 411.849 549.19 411.849C556.88 411.849 563.01 410.299 568.34 407.199C573.67 404.099 577.95 399.789 581.17 394.279C584.39 388.759 586.78 382.349 588.33 375.029C589.88 367.719 590.65 359.849 590.65 351.409V347.509C590.65 339.329 589.87 331.609 588.33 324.359C586.78 317.109 584.36 310.659 581.08 305.019C577.79 299.379 573.48 294.949 568.16 291.719C562.83 288.499 556.38 286.889 548.82 286.889C541.26 286.889 534.84 288.499 529.57 291.719C524.3 294.949 520.02 299.379 516.74 305.019C513.45 310.659 511.07 317.109 509.58 324.359C508.09 331.609 507.35 339.329 507.35 347.509Z" fill="#1A1A18"/>
<path d="M760.84 411.847C767.41 411.847 773.24 410.577 778.32 408.037C783.4 405.497 787.4 401.897 790.31 397.247C793.22 392.597 794.74 387.117 794.87 380.787H845.26C845.14 394.917 841.35 407.477 833.92 418.447C826.48 429.417 816.5 438.037 803.98 444.297C791.46 450.557 777.45 453.687 761.95 453.687C746.45 453.687 732.72 451.087 721.13 445.877C709.54 440.667 699.9 433.447 692.21 424.217C684.52 414.987 678.76 404.197 674.92 391.857C671.08 379.527 669.16 366.287 669.16 352.157V346.767C669.16 332.517 671.08 319.217 674.92 306.877C678.76 294.547 684.53 283.757 692.21 274.517C699.9 265.287 709.5 258.057 721.03 252.857C732.56 247.647 746.07 245.047 761.57 245.047C778.06 245.047 792.53 248.207 804.99 254.527C817.45 260.847 827.24 269.867 834.37 281.587C841.5 293.307 845.12 307.157 845.25 323.147H794.86C794.74 316.457 793.34 310.377 790.68 304.927C788.01 299.477 784.17 295.107 779.15 291.817C774.13 288.537 767.96 286.887 760.65 286.887C752.84 286.887 746.45 288.527 741.5 291.817C736.54 295.107 732.7 299.567 729.97 305.207C727.24 310.847 725.35 317.237 724.3 324.357C723.24 331.487 722.72 338.957 722.72 346.767V352.157C722.72 359.967 723.21 367.467 724.21 374.657C725.2 381.847 727.09 388.227 729.88 393.807C732.67 399.387 736.54 403.787 741.5 407.007C746.46 410.237 752.9 411.837 760.84 411.837V411.847Z" fill="#1A1A18"/>
<path d="M867.77 351.409V347.509C867.77 332.759 869.88 319.149 874.09 306.689C878.3 294.229 884.44 283.419 892.5 274.239C900.56 265.069 910.47 257.909 922.25 252.759C934.03 247.619 947.539 245.039 962.789 245.039C978.039 245.039 991.61 247.609 1003.52 252.759C1015.42 257.909 1025.43 265.069 1033.55 274.239C1041.67 283.419 1047.84 294.229 1052.05 306.689C1056.26 319.149 1058.37 332.759 1058.37 347.509V351.409C1058.37 366.039 1056.26 379.579 1052.05 392.039C1047.83 404.499 1041.67 415.349 1033.55 424.579C1025.43 433.819 1015.48 440.979 1003.7 446.059C991.92 451.139 978.409 453.679 963.159 453.679C947.909 453.679 934.37 451.139 922.53 446.059C910.69 440.979 900.71 433.819 892.59 424.579C884.47 415.349 878.3 404.499 874.09 392.039C869.87 379.579 867.77 366.039 867.77 351.409ZM921.33 347.509V351.409C921.33 359.839 922.07 367.709 923.56 375.029C925.05 382.349 927.429 388.759 930.719 394.279C933.999 399.799 938.31 404.109 943.64 407.199C948.97 410.299 955.479 411.849 963.169 411.849C970.859 411.849 976.99 410.299 982.32 407.199C987.65 404.099 991.93 399.789 995.15 394.279C998.37 388.759 1000.76 382.349 1002.31 375.029C1003.86 367.719 1004.63 359.849 1004.63 351.409V347.509C1004.63 339.329 1003.85 331.609 1002.31 324.359C1000.76 317.109 998.34 310.659 995.06 305.019C991.77 299.379 987.46 294.949 982.14 291.719C976.81 288.499 970.359 286.889 962.799 286.889C955.239 286.889 948.819 288.499 943.549 291.719C938.279 294.949 933.999 299.379 930.719 305.019C927.429 310.659 925.05 317.109 923.56 324.359C922.07 331.609 921.33 339.329 921.33 347.509Z" fill="#1A1A18"/>
<path d="M1148.22 164.344V449.974H1094.48V164.344H1148.22Z" fill="#1A1A18"/>
<path d="M1249.21 164.344V449.974H1195.47V164.344H1249.21Z" fill="#1A1A18"/>
<path d="M1386.27 453.687C1370.65 453.687 1356.64 451.177 1344.24 446.157C1331.84 441.137 1321.33 434.167 1312.72 425.237C1304.1 416.307 1297.5 405.927 1292.92 394.087C1288.33 382.247 1286.04 369.637 1286.04 356.247V348.807C1286.04 333.557 1288.21 319.607 1292.55 306.967C1296.89 294.317 1303.12 283.347 1311.24 274.057C1319.36 264.757 1329.25 257.597 1340.9 252.577C1352.55 247.557 1365.69 245.047 1380.32 245.047C1394.95 245.047 1407.22 247.407 1418.26 252.117C1429.29 256.827 1438.56 263.527 1446.06 272.197C1453.56 280.877 1459.23 291.257 1463.07 303.347C1466.91 315.437 1468.83 328.857 1468.83 343.607V365.917H1308.91V330.217H1416.21V326.127C1416.21 318.687 1414.88 312.027 1412.21 306.137C1409.54 300.247 1405.54 295.567 1400.22 292.097C1394.89 288.627 1388.07 286.887 1379.76 286.887C1372.69 286.887 1366.62 288.437 1361.54 291.537C1356.46 294.637 1352.33 298.977 1349.17 304.557C1346.01 310.137 1343.65 316.677 1342.1 324.177C1340.55 331.677 1339.78 339.887 1339.78 348.817V356.257C1339.78 364.317 1340.92 371.757 1343.22 378.567C1345.51 385.387 1348.8 391.277 1353.08 396.237C1357.36 401.197 1362.56 405.037 1368.7 407.767C1374.84 410.497 1381.81 411.857 1389.62 411.857C1399.29 411.857 1408.31 409.967 1416.68 406.187C1425.05 402.407 1432.27 396.677 1438.34 388.987L1464.37 417.257C1460.15 423.337 1454.42 429.157 1447.17 434.737C1439.92 440.317 1431.21 444.867 1421.04 448.407C1410.87 451.937 1399.28 453.707 1386.27 453.707V453.687Z" fill="#1A1A18"/>
<path d="M1582.63 411.847C1589.2 411.847 1595.02 410.577 1600.11 408.037C1605.19 405.497 1609.19 401.897 1612.1 397.247C1615.01 392.597 1616.53 387.117 1616.66 380.787H1667.05C1666.93 394.917 1663.14 407.477 1655.71 418.447C1648.27 429.417 1638.29 438.037 1625.77 444.297C1613.25 450.557 1599.24 453.687 1583.74 453.687C1568.24 453.687 1554.51 451.087 1542.92 445.877C1531.33 440.667 1521.69 433.447 1514 424.217C1506.31 414.987 1500.55 404.197 1496.71 391.857C1492.87 379.527 1490.95 366.287 1490.95 352.157V346.767C1490.95 332.517 1492.87 319.217 1496.71 306.877C1500.55 294.547 1506.32 283.757 1514 274.517C1521.69 265.287 1531.29 258.057 1542.82 252.857C1554.35 247.647 1567.86 245.047 1583.36 245.047C1599.85 245.047 1614.32 248.207 1626.78 254.527C1639.24 260.847 1649.03 269.867 1656.16 281.587C1663.29 293.307 1666.91 307.157 1667.04 323.147H1616.65C1616.53 316.457 1615.13 310.377 1612.47 304.927C1609.8 299.477 1605.96 295.107 1600.94 291.817C1595.92 288.537 1589.75 286.887 1582.44 286.887C1574.63 286.887 1568.24 288.527 1563.29 291.817C1558.33 295.107 1554.49 299.567 1551.76 305.207C1549.03 310.847 1547.14 317.237 1546.09 324.357C1545.04 331.487 1544.51 338.957 1544.51 346.767V352.157C1544.51 359.967 1545 367.467 1546 374.657C1546.99 381.847 1548.88 388.227 1551.67 393.807C1554.46 399.387 1558.33 403.787 1563.29 407.007C1568.25 410.237 1574.69 411.837 1582.63 411.837V411.847Z" fill="#1A1A18"/>
<path d="M1796.68 248.759V286.699H1679.53V248.759H1796.68ZM1708.53 199.109H1762.09V389.349C1762.09 395.179 1762.86 399.639 1764.41 402.739C1765.96 405.839 1768.28 407.979 1771.38 409.159C1774.48 410.339 1778.38 410.929 1783.1 410.929C1786.45 410.929 1789.45 410.779 1792.12 410.469C1794.79 410.159 1797.05 409.819 1798.91 409.449L1799.1 448.869C1794.51 450.359 1789.55 451.539 1784.22 452.399C1778.89 453.269 1773 453.699 1766.55 453.699C1754.77 453.699 1744.51 451.749 1735.77 447.839C1727.03 443.929 1720.3 437.639 1715.59 428.959C1710.88 420.279 1708.52 408.879 1708.52 394.739V199.109H1708.53Z" fill="#1A1A18"/>
</g>
<defs>
<clipPath id="clip0_6866_2826">
<rect width="1966.87" height="833.65" fill="white"/>
</clipPath>
</defs>
</svg>
