<svg width="100" height="100" viewBox="0 0 100 100" fill="none" xmlns="http://www.w3.org/2000/svg">
<rect x="1" y="1" width="98" height="98" rx="49" fill="white"/>
<rect x="1" y="1" width="98" height="98" rx="49" stroke="#FEB502" stroke-width="2"/>
<path d="M28.3612 64.1665C28.3612 64.0077 28.3612 63.8936 28.3612 63.7795C28.3612 57.3915 28.3567 51.0035 28.3642 44.614C28.3672 42.534 29.8088 40.9952 31.8301 40.949C31.8301 41.2327 31.8301 41.5148 31.8301 41.797C31.8301 43.2587 31.8227 44.7219 31.8331 46.1836C31.8451 47.8412 32.9356 48.959 34.5446 48.9775C35.0645 48.9837 35.5829 48.9775 36.1342 48.9775C36.1626 49.178 36.185 49.3414 36.2104 49.5326C36.2671 49.5573 36.3299 49.602 36.3971 49.6112C37.0619 49.7037 37.7237 49.8178 38.3915 49.8687C38.7366 49.8949 38.8875 50.0445 38.9547 50.3667C38.9936 50.5533 39.0309 50.7584 39.1325 50.9095C39.6778 51.719 39.4448 52.3743 38.8218 53.0064C38.52 53.3133 38.2884 53.6957 38.0614 53.9963C39.5807 55.5567 41.0776 57.094 42.6 58.659C43.0407 58.309 43.5695 57.9142 44.0685 57.484C44.3045 57.2805 44.4868 57.2543 44.7632 57.4008C45.2248 57.6459 45.7044 57.868 46.1959 58.0391C46.4977 58.144 46.5903 58.3059 46.6187 58.6127C46.6784 59.2603 46.7815 59.9048 46.8711 60.5863H53.2219C53.31 59.9264 53.4161 59.2649 53.4788 58.6004C53.5087 58.2889 53.6163 58.1301 53.9151 58.036C54.3214 57.9065 54.7412 57.7585 55.0938 57.5226C55.5569 57.2127 55.8871 57.3175 56.265 57.6629C56.6804 58.0438 57.142 58.3737 57.5573 58.7037C59.0662 57.1402 60.5497 55.603 62.0705 54.0272C61.6627 53.4906 61.1951 52.9186 60.7842 52.3049C60.6677 52.1307 60.6617 51.8284 60.7021 51.6018C60.7514 51.3243 60.9575 51.076 60.9979 50.7985C61.1054 50.0553 61.5312 49.8132 62.208 49.7916C62.7622 49.7731 63.3135 49.6621 63.8827 49.5896C63.911 49.3892 63.9349 49.2227 63.9603 49.0454C64.0052 49.0269 64.0545 48.9883 64.1038 48.9868C64.5699 48.9791 65.036 48.9791 65.5021 48.9744C67.1828 48.9606 68.2689 47.8519 68.2763 46.125C68.2838 44.6048 68.2778 43.0845 68.2778 41.5642C68.2778 41.3576 68.2778 41.1509 68.2778 40.9443C70.2887 40.9844 71.7393 42.5294 71.7438 44.6078C71.7527 49.8024 71.7468 54.9985 71.7468 60.1931C71.7468 61.5006 71.7468 62.8066 71.7468 64.1588H28.3612V64.1665Z" fill="#FEB502"/>
<path d="M38.1377 44.7989C38.8094 44.7115 39.4841 44.6497 40.1484 44.523C40.3292 44.4884 40.5423 44.2954 40.6261 44.1175C41.0568 43.21 41.4625 42.2874 41.8461 41.3573C41.9108 41.199 41.8961 40.9291 41.802 40.7934C41.3801 40.1814 40.9171 39.5995 40.4938 39.0387C41.267 38.2442 42.0166 37.4754 42.8074 36.6643C43.3394 37.088 43.9244 37.5342 44.4859 38.0106C44.7578 38.2412 44.9577 38.2744 45.3031 38.0995C46.0542 37.7196 46.8391 37.3985 47.6357 37.1332C47.9782 37.0186 48.1076 36.8664 48.1428 36.5302C48.2222 35.7674 48.3236 35.0076 48.4177 34.2222H51.6675C51.7616 35.0031 51.86 35.7629 51.9394 36.5241C51.9747 36.8603 52.1011 37.0126 52.445 37.1287C53.2579 37.4015 54.0516 37.7483 54.8276 38.1206C55.1245 38.2623 55.3039 38.2578 55.5493 38.0483C56.1137 37.5704 56.7017 37.1226 57.2264 36.7051C58.0025 37.5025 58.7594 38.2804 59.5502 39.0945C59.1063 39.6809 58.5904 40.3623 58.1465 40.9487C58.611 42.0899 59.0313 43.1633 59.4914 44.217C59.5575 44.3693 59.803 44.4989 59.9838 44.5291C60.632 44.6391 61.289 44.7024 61.971 44.7869V48.1215C61.3287 48.2089 60.7011 48.3114 60.0705 48.3733C59.7868 48.4004 59.6942 48.5119 59.6016 48.7923C59.2651 49.819 58.8976 50.838 58.4816 51.8345C58.3582 52.13 58.3685 52.2943 58.5522 52.5219C58.9138 52.9697 59.2533 53.4355 59.5649 53.844C58.7859 54.64 58.0289 55.4164 57.2396 56.2229C56.8766 55.935 56.4327 55.6048 56.0138 55.2445C55.7992 55.0606 55.6507 55.0727 55.3935 55.1978C54.372 55.6908 53.3343 56.1536 52.2848 56.5787C52.0247 56.6842 51.9027 56.7777 51.8762 57.0626C51.8262 57.5842 51.741 58.1028 51.6646 58.6666H48.4265C48.353 58.139 48.2972 57.5842 48.184 57.0415C48.1487 56.8772 47.9767 56.6872 47.8195 56.6134C46.7759 56.1234 45.7235 55.6531 44.6623 55.2038C44.505 55.1375 44.2434 55.1526 44.1067 55.246C43.651 55.5581 43.2292 55.9229 42.8412 56.2304C42.0651 55.4345 41.3096 54.6581 40.5232 53.8501C40.9083 53.3375 41.3405 52.7601 41.6521 52.3456C41.2258 51.0461 40.851 49.8747 40.4468 48.7155C40.3968 48.5722 40.1896 48.4245 40.0352 48.3959C39.4238 48.2813 38.805 48.215 38.1392 48.123V44.7944L38.1377 44.7989ZM50.0301 52.026C52.836 52.0335 55.101 49.724 55.1069 46.8492C55.1128 43.9819 52.8419 41.6392 50.0551 41.6346C47.2624 41.6301 44.9842 43.9607 44.9827 46.825C44.9812 49.7104 47.2227 52.0199 50.0316 52.0275L50.0301 52.026Z" fill="#FEB502"/>
<path d="M28.3599 65.3903H71.7487C71.6548 66.4083 71.6846 67.4344 71.446 68.3826C71.0493 69.9629 69.6923 70.8857 68.0415 70.8873C61.4577 70.8904 54.8754 70.8873 48.2917 70.8873C42.9173 70.8873 37.5429 70.8873 32.1685 70.8873C29.7706 70.8873 28.3614 69.3832 28.3599 66.8245C28.3599 66.3718 28.3599 65.9176 28.3599 65.3887V65.3903Z" fill="#FEB502"/>
<path d="M57.5997 72.7222V75.2856C57.8403 75.2856 58.0373 75.2856 58.2343 75.2856C59.1906 75.2856 60.1484 75.2751 61.1047 75.293C61.6129 75.302 61.9662 75.6735 61.9708 76.139C61.9753 76.6105 61.6339 76.9552 61.1152 76.9925C60.9468 77.0044 60.7784 76.9984 60.6085 76.9984C53.3671 76.9984 46.1241 76.9984 38.8827 76.9984C38.7895 76.9984 38.6947 76.9984 38.6015 76.9984C37.9084 76.988 37.5204 76.6762 37.5264 76.136C37.5325 75.5989 37.9249 75.29 38.6181 75.287C39.6826 75.2841 40.7487 75.287 41.8779 75.287V72.7237H57.5982L57.5997 72.7222Z" fill="#FEB502"/>
<path d="M63.8042 47.0558V45.3961C64.0758 45.3773 64.3428 45.3585 64.6666 45.3354C64.6666 45.1229 64.6666 44.9291 64.6666 44.7354C64.6666 41.9582 64.6666 39.1796 64.6666 36.4024C64.6666 35.5668 64.9442 35.2965 65.7932 35.2936C66.7616 35.2907 67.7299 35.2806 68.6968 35.2994C69.0131 35.3052 69.1788 35.2155 69.3384 34.9322C69.9845 33.7901 71.3334 33.326 72.542 33.7886C73.7073 34.2339 74.3892 35.4468 74.143 36.6352C73.8879 37.8669 72.736 38.7315 71.4199 38.6447C70.4769 38.5825 69.7652 38.1243 69.3235 37.3176C69.1818 37.0573 69.0415 36.9561 68.7311 36.9677C67.9731 36.9952 67.2137 36.9764 66.3855 36.9764C66.3855 37.2511 66.3855 37.4636 66.3855 37.6746C66.3855 40.3983 66.3855 43.122 66.3855 45.8457C66.3855 46.8216 66.1438 47.0514 65.1292 47.0558C64.7054 47.0558 64.2802 47.0558 63.8042 47.0558Z" fill="#FEB502"/>
<path d="M33.5923 36.9616C32.6139 36.9616 31.7289 36.9399 30.8455 36.9819C30.6935 36.9892 30.5289 37.2469 30.4181 37.4149C29.5822 38.6879 27.7742 39.0456 26.4554 38.1868C25.1699 37.3512 24.9198 35.6713 25.914 34.546C27.1109 33.1934 29.4191 33.3251 30.3816 34.8356C30.6207 35.2107 30.8708 35.3063 31.303 35.2947C32.2893 35.2687 33.2772 35.2831 34.2635 35.2875C35.0978 35.2904 35.4081 35.5684 35.4097 36.3302C35.4145 39.1296 35.4113 41.9291 35.4113 44.7285C35.4113 44.9225 35.4113 45.118 35.4113 45.344C35.7311 45.3642 35.9986 45.3802 36.3042 45.4005V47.0442C35.663 47.0442 35.0329 47.0761 34.4108 47.0341C33.8472 46.9964 33.5986 46.6821 33.5954 46.0898C33.5875 44.3737 33.5923 42.659 33.5923 40.9428C33.5923 39.6452 33.5923 38.3476 33.5923 36.9587V36.9616Z" fill="#FEB502"/>
<path d="M35.854 28.053C37.2791 28.053 38.658 28.0515 40.0368 28.053C40.9072 28.053 41.1868 28.3294 41.1883 29.1969C41.1928 31.158 41.2003 33.119 41.1764 35.0785C41.1734 35.329 41.0403 35.6207 40.8788 35.8147C40.481 36.2881 40.0308 36.7158 39.491 37.2778V29.8063C38.2826 29.8063 37.152 29.7926 36.0214 29.8262C35.8928 29.8292 35.7478 30.0858 35.6521 30.2508C35.0972 31.2084 34.0265 31.7475 33.0036 31.5688C31.9044 31.3779 31.0564 30.5409 30.8531 29.4489C30.6093 28.1401 31.2957 26.8923 32.5086 26.4417C33.7244 25.9896 35.0314 26.4967 35.667 27.6696C35.7298 27.7857 35.7837 27.9064 35.8554 28.0515L35.854 28.053Z" fill="#FEB502"/>
<path d="M60.6408 29.8141V37.2778C60.0127 36.6304 59.4788 36.096 58.9718 35.5356C58.891 35.447 58.9209 35.2439 58.9209 35.0928C58.918 33.1123 58.9165 31.1303 58.9209 29.1499C58.9224 28.3436 59.2141 28.0505 60.0007 28.0474C61.2509 28.0428 62.5012 28.0337 63.7499 28.0535C64.1044 28.0596 64.2928 27.9695 64.4768 27.6244C65.0989 26.4563 66.4628 25.986 67.6592 26.4609C68.8496 26.9343 69.5121 28.2123 69.2459 29.5179C68.9917 30.7608 67.8611 31.6571 66.5914 31.5899C65.6463 31.5395 64.906 31.0799 64.4663 30.2294C64.2838 29.8767 64.0834 29.8003 63.732 29.8065C62.7285 29.8278 61.7235 29.8141 60.6423 29.8141H60.6408Z" fill="#FEB502"/>
<path d="M50.9809 32.3889H49.1632C49.1521 32.2007 49.1316 32.0245 49.13 31.8468C49.1269 30.4147 49.1143 28.9812 49.1395 27.5491C49.1458 27.1907 49.059 27.0026 48.7056 26.8219C47.5869 26.2484 47.0757 25.0523 47.4007 23.9204C47.7305 22.7691 48.7876 22.0015 50.0484 22C51.3122 21.9985 52.3662 22.7571 52.7039 23.9099C53.04 25.0583 52.5161 26.2514 51.3627 26.8458C51.0503 27.007 50.9682 27.1743 50.973 27.4909C50.9919 28.905 50.9809 30.3192 50.9809 31.7333C50.9809 31.9334 50.9809 32.1335 50.9809 32.3889Z" fill="#FEB502"/>
</svg>
