<svg width="100" height="100" viewBox="0 0 100 100" fill="none" xmlns="http://www.w3.org/2000/svg">
<rect x="1" y="1" width="98" height="98" rx="49" fill="#0040E3"/>
<rect x="1" y="1" width="98" height="98" rx="49" stroke="white" stroke-width="2"/>
<g clip-path="url(#clip0_114_34)">
<path d="M80.0002 61.2301C79.5564 62.2489 78.7805 62.6239 77.7017 62.5465C76.8871 62.4882 76.0642 62.5346 75.2519 62.5346C74.1484 66.1123 71.857 68.1797 68.1053 67.956C64.8302 67.7608 62.8441 65.7481 61.9202 62.5346H61.372C55.8255 62.5346 50.279 62.5394 44.7336 62.5251C44.2946 62.5251 44.1138 62.6286 43.9847 63.0928C43.1688 66.0278 40.5124 68.0071 37.4767 68C34.5022 67.9929 31.8609 65.9683 31.0357 63.0619C30.9876 62.894 30.9395 62.7262 30.8843 62.5334C29.748 62.5334 28.6351 62.537 27.5235 62.5334C26.3414 62.5286 25.6359 61.8121 25.6324 60.6124C25.6289 59.0878 25.6324 57.5631 25.6324 56.0373C25.6324 55.8445 25.6324 55.6529 25.6324 55.4041C24.3681 55.4041 23.1626 55.4053 21.957 55.4041C20.7726 55.4017 19.999 54.6828 20.0084 53.5998C20.0178 52.55 20.7914 51.8442 21.9453 51.8442C27.0622 51.843 32.1791 51.8406 37.2948 51.8466C38.0965 51.8466 38.7563 51.6062 39.1378 50.8433C39.7282 49.665 38.9206 48.3296 37.5695 48.2819C36.6327 48.2486 35.6948 48.2736 34.7581 48.2736C30.4417 48.2736 26.1266 48.276 21.8103 48.2712C20.8641 48.2712 20.1211 47.6202 20.0154 46.7347C19.9086 45.8385 20.4228 45.0303 21.2844 44.7828C21.5039 44.7197 21.7457 44.7161 21.977 44.7161C25.3753 44.7125 28.7737 44.7161 32.1708 44.7113C33.3987 44.709 34.1617 43.9294 34.1019 42.7654C34.0549 41.8632 33.5278 41.3478 32.5301 41.2788C32.0241 41.2431 31.5147 41.2645 31.0075 41.2645C28.5659 41.2645 26.1254 41.2657 23.6838 41.2633C22.5404 41.2621 21.768 40.5433 21.7668 39.4876C21.7645 38.4318 22.5369 37.7094 23.6767 37.7046C24.3001 37.7023 24.9234 37.7046 25.5972 37.7046C25.6101 37.5106 25.6312 37.3404 25.6324 37.1702C25.6359 36.1407 25.6324 35.11 25.6336 34.0805C25.6336 32.6713 26.2851 32 27.6597 32C33.3036 32 38.9476 32 44.5916 32C49.2401 32 53.8874 32 58.536 32C58.7484 32 58.9621 32 59.2579 32V32.6558C59.2579 35.8836 59.2579 39.1114 59.2579 42.3405C59.2579 43.7866 59.9446 44.4757 61.3838 44.4769C65.7189 44.4769 70.0551 44.4709 74.3902 44.4804C76.7274 44.4852 78.9942 46.0396 79.6985 48.0951C79.8123 48.4283 79.9004 48.7711 80.0002 49.1103V61.2313V61.2301ZM37.5425 64.4365C39.2704 64.4437 40.7471 62.9369 40.7448 61.1671C40.7424 59.3972 39.2645 57.894 37.5354 57.9035C35.7781 57.9142 34.3167 59.377 34.3002 61.1433C34.2838 62.9286 35.7605 64.4294 37.5425 64.4365ZM71.7972 61.1885C71.8101 59.4222 70.3404 57.9083 68.6089 57.9035C66.8552 57.8988 65.3831 59.3544 65.3526 61.123C65.3221 62.9071 66.7871 64.4139 68.5725 64.4377C70.2981 64.4603 71.7831 62.9631 71.796 61.1897L71.7972 61.1885Z" fill="white"/>
<path d="M62.8206 32.395C67.6322 33.3388 70.203 36.838 72.4076 40.8621H62.8206V32.395Z" fill="white"/>
</g>
<defs>
<clipPath id="clip0_114_34">
<rect width="60" height="36" fill="white" transform="translate(20 32)"/>
</clipPath>
</defs>
</svg>
