<svg width="80" height="80" viewBox="0 0 80 80" fill="none" xmlns="http://www.w3.org/2000/svg">
<rect x="1" y="1" width="78" height="78" rx="39" fill="#FEB502"/>
<rect x="1" y="1" width="78" height="78" rx="39" stroke="white" stroke-width="2"/>
<g clip-path="url(#clip0_45_1432)">
<path d="M40.0146 22.0048C46.4805 22.0048 52.9463 22.0107 59.4122 22C60.7708 21.9976 61.8918 22.4416 62.5448 23.6664C62.8051 24.1532 62.9758 24.7531 62.9782 25.3018C63.0056 32.9208 63.0009 40.5398 62.9925 48.1576C62.9901 49.9799 61.6769 51.3249 59.8252 51.4451C59.6068 51.4594 59.3883 51.4523 59.1686 51.4523C46.3563 51.4523 33.544 51.4332 20.7316 51.4725C18.2807 51.4808 16.983 49.7502 16.9997 47.7374C17.0629 40.3184 17.0271 32.897 17.0235 25.4768C17.0235 23.9783 17.6551 22.857 19.0471 22.2773C19.5593 22.0643 20.1705 22.0167 20.7364 22.0155C27.1629 21.9976 33.5881 22.0036 40.0146 22.0048ZM40.0122 47.3518C46.4196 47.3518 52.8269 47.3518 59.2343 47.3518C60.3458 47.3518 60.5224 47.1756 60.5224 46.0734C60.5236 39.3257 60.5224 32.5792 60.5224 25.8315C60.5224 24.6293 60.3302 24.4377 59.1459 24.4377C46.3909 24.4377 33.6359 24.4377 20.8797 24.4377C19.6978 24.4377 19.5044 24.6341 19.5044 25.8315C19.5044 32.5387 19.5044 39.246 19.5055 45.9544C19.5055 46.1532 19.4996 46.3519 19.5163 46.5495C19.5557 47.034 19.8124 47.3149 20.3126 47.3399C20.5514 47.3518 20.7901 47.3518 21.0289 47.3518C27.3563 47.3518 33.6848 47.3518 40.0122 47.3518ZM40.0444 48.5837C38.9927 48.5837 37.9397 48.5766 36.8879 48.5861C36.2958 48.592 35.9352 48.9253 35.9436 49.4217C35.9507 49.8918 36.297 50.2311 36.8557 50.2346C38.9401 50.2489 41.0246 50.2501 43.109 50.2382C43.7227 50.2346 44.0772 49.9097 44.0844 49.424C44.0916 48.9087 43.7191 48.5885 43.0828 48.5849C42.0704 48.5789 41.058 48.5837 40.0456 48.5837H40.0444Z" fill="white"/>
<path d="M40.0113 57.999C37.8636 57.999 35.717 57.999 33.5693 57.999C32.3802 57.999 32.071 57.492 32.6035 56.4172C33.0703 55.4768 33.5418 54.5389 33.9991 53.5938C34.171 53.2379 34.4002 53.0784 34.8264 53.0796C38.2862 53.0975 41.7459 53.0975 45.2057 53.0796C45.6343 53.0772 45.8552 53.2474 46.0283 53.601C46.507 54.5794 47.006 55.5483 47.4883 56.5255C47.9396 57.4408 47.5994 57.9931 46.5727 57.9955C44.3855 58.0014 42.1984 57.9978 40.0113 57.9978V57.999Z" fill="white"/>
<path d="M39.9933 26.1076C46.0222 26.1076 52.0511 26.1076 58.08 26.1076C58.9049 26.1076 58.9061 26.11 58.9061 26.9242C58.9085 32.9172 58.9097 38.9091 58.9097 44.9021C58.9097 45.7377 58.9073 45.7425 58.0907 45.7425C46.0329 45.7425 33.9751 45.7425 21.9173 45.7425C21.1365 45.7425 21.115 45.7211 21.1138 44.9402C21.1126 38.9281 21.1138 32.9148 21.1138 26.9027C21.1138 26.11 21.1162 26.1064 21.9053 26.1064C27.9342 26.1064 33.9632 26.1064 39.9921 26.1064L39.9933 26.1076ZM52.3316 36.1845C52.3257 34.3967 52.0069 32.6435 51.2763 31.3556C50.6853 30.3153 49.9225 29.3666 49.1835 28.418C48.891 28.043 48.4433 28.0514 48.078 28.4001C47.7127 28.7501 47.7461 29.1393 48.0386 29.5166C48.1962 29.7201 48.386 29.8987 48.5495 30.0975C50.4537 32.4114 51.0638 35.0371 50.4334 37.9545C50.0812 39.5852 49.2861 40.979 48.1353 42.1847C47.7365 42.6025 47.7246 43.0739 48.0457 43.4024C48.4015 43.7642 48.8516 43.7321 49.31 43.3072C49.3972 43.2262 49.4819 43.1417 49.5607 43.0525C51.3885 41.0135 52.2719 38.6103 52.3304 36.1857L52.3316 36.1845ZM27.6859 35.9501C27.7373 37.739 28.1109 39.5149 29.0839 41.1052C29.5758 41.9098 30.1882 42.6466 30.7995 43.3691C31.1182 43.7452 31.5814 43.7773 31.9611 43.4107C32.3145 43.0679 32.2846 42.6692 31.9826 42.2931C31.8584 42.1383 31.7163 41.9991 31.5898 41.8467C29.1973 38.9543 28.6804 35.7453 30.1417 32.303C30.5559 31.3246 31.3128 30.4879 31.9372 29.6035C32.2046 29.225 32.3359 28.8631 32.0244 28.4715C31.7545 28.1323 31.3904 28.0621 31.0132 28.2751C30.8281 28.3799 30.6717 28.5453 30.5261 28.7048C28.6649 30.739 27.7671 33.1529 27.6859 35.9501ZM49.0629 35.8572C48.9913 33.9778 48.3657 32.2638 47.0107 30.8497C46.5582 30.3772 46.1451 30.3438 45.7631 30.6985C45.4073 31.0294 45.4288 31.5056 45.8228 31.9626C47.9514 34.4348 47.955 37.3451 45.8335 39.8363C45.442 40.2958 45.4085 40.7838 45.7452 41.1111C46.0986 41.4551 46.6322 41.3944 47.0537 40.9361C48.3597 39.5173 49.008 37.8343 49.0629 35.8572ZM30.9738 35.6084C30.9618 37.6902 31.745 39.6756 32.9735 40.9338C33.4092 41.3813 33.9321 41.4551 34.2843 41.1182C34.621 40.7969 34.5887 40.3077 34.1983 39.8482C32.0602 37.3284 32.0697 34.4991 34.2198 31.9376C34.3309 31.8055 34.5016 31.6162 34.4741 31.4936C34.4013 31.1758 34.3106 30.7914 34.0861 30.5938C33.7184 30.2712 33.334 30.5248 33.0427 30.8235C31.6793 32.2269 31.0514 33.9337 30.975 35.6073L30.9738 35.6084ZM40.0649 33.46C38.7123 33.4445 37.5674 34.5372 37.5411 35.8691C37.5148 37.1951 38.643 38.3378 39.9921 38.352C41.3435 38.3663 42.4741 37.2594 42.4836 35.912C42.4932 34.6169 41.3674 33.4755 40.0649 33.46ZM36.9573 33.5505C36.7293 33.3029 36.5478 32.9327 36.2983 32.8803C36.0154 32.8208 35.5856 32.9565 35.3707 33.1636C33.9464 34.536 33.9154 37.0713 35.2609 38.5758C35.6978 39.065 36.1801 39.1626 36.5538 38.8365C36.9549 38.4865 36.9442 38.0866 36.5204 37.5284C35.7133 36.4654 35.7133 35.3704 36.5072 34.3015C36.6565 34.1004 36.7675 33.8706 36.9573 33.5505ZM45.7727 35.9608C45.7118 34.8883 45.4157 33.9409 44.6875 33.166C44.2744 32.7256 43.878 32.6696 43.4817 32.9767C43.1128 33.2624 43.0913 33.7207 43.4232 34.1956C44.3556 35.5275 44.3532 36.3048 43.4112 37.6486C43.0865 38.1128 43.1068 38.5794 43.502 38.8591C43.9318 39.1626 44.3257 39.0448 44.6672 38.6817C45.3942 37.9081 45.7094 36.9689 45.7727 35.962V35.9608Z" fill="white"/>
<path d="M39.9864 35.1207C40.4485 35.1052 40.7827 35.4147 40.8018 35.8729C40.8221 36.3562 40.4843 36.7168 40.0115 36.7168C39.5674 36.7168 39.2307 36.38 39.2224 35.9277C39.2128 35.4694 39.5292 35.1361 39.9864 35.1219V35.1207Z" fill="white"/>
</g>
<defs>
<clipPath id="clip0_45_1432">
<rect width="46" height="36" fill="white" transform="translate(17 22)"/>
</clipPath>
</defs>
</svg>
