<svg width="100" height="100" viewBox="0 0 100 100" fill="none" xmlns="http://www.w3.org/2000/svg">
<circle cx="50" cy="50" r="50" fill="#002FA7"/>
<path d="M76.9943 64.8699C76.8565 65.516 76.7474 66.1621 76.5809 66.7957C75.3292 71.5945 71.3501 74.9128 66.797 74.9818C64.8792 75.0132 62.9787 74.9818 61.1471 74.1789C57.1738 72.4288 54.5498 68.1444 54.6532 63.4585C54.6647 63.0445 54.7738 62.6054 54.9231 62.2165C57.7021 55.1093 60.4925 48.0146 63.2773 40.9137C63.3691 40.6816 63.4495 40.4495 63.5586 40.1735C63.3979 40.161 63.2773 40.1484 63.1624 40.1547C60.1653 40.3241 57.2829 39.7721 54.5154 38.4987C51.122 36.9367 47.7402 36.9681 44.3525 38.5426C41.6712 39.7846 38.8749 40.3053 35.9696 40.1673C35.8089 40.161 35.6481 40.1673 35.4127 40.1673C35.5045 40.4244 35.5849 40.6503 35.6711 40.8698C38.341 47.6634 40.9707 54.4757 43.7095 61.2379C44.3755 62.8877 44.4272 64.4747 44.0884 66.1496C43.0377 71.2745 38.9094 74.9254 34.115 74.9944C32.1973 75.0195 30.2968 74.9944 28.4652 74.1852C24.6469 72.4915 22.0115 68.3702 22 63.9039C22 63.2766 22.1148 62.6054 22.3445 62.0283C25.2269 54.6325 28.1322 47.2431 31.0375 39.8599C31.1064 39.6842 31.1753 39.5023 31.2499 39.3016C30.6643 39.0507 30.1016 38.8186 29.5446 38.5551C28.9532 38.2728 28.735 37.7898 28.9417 37.2692C29.1542 36.736 29.6135 36.5792 30.2049 36.8301C30.6241 37.0057 31.0375 37.1814 31.4566 37.3444C31.893 37.5138 32.3064 37.633 32.8002 37.4197C33.3342 37.1876 33.8394 37.4448 34.2988 37.8212C34.4883 37.978 34.7237 38.1223 34.9533 38.1537C37.9677 38.5363 40.8788 38.0909 43.675 36.8113C45.254 36.0899 46.8904 35.6382 48.6359 35.4814C48.6359 34.8792 48.6703 34.3084 48.6186 33.7501C48.6014 33.5744 48.3775 33.3612 48.1995 33.2671C46.9134 32.5645 46.2473 31.059 46.5803 29.541C46.9019 28.0167 48.1191 26.9754 49.5431 27.0004C50.9326 27.0193 52.1039 28.0731 52.4197 29.5912C52.7297 31.0716 52.0694 32.5959 50.7775 33.242C50.4043 33.4239 50.3239 33.6497 50.3412 34.0386C50.3641 34.5028 50.3412 34.9733 50.3412 35.4939C52.3106 35.6194 54.125 36.2467 55.8992 37.0684C56.5193 37.357 57.1853 37.5389 57.8456 37.7208C59.8954 38.2979 61.9739 38.4297 64.0754 38.1537C64.2706 38.1286 64.4773 38.0094 64.6323 37.8714C65.172 37.3758 65.7577 37.2378 66.4352 37.4762C66.6247 37.5452 66.8601 37.5577 67.0438 37.495C67.641 37.2943 68.2266 37.0434 68.8123 36.8113C69.3692 36.5854 69.8228 36.7548 70.0353 37.2692C70.242 37.771 70.041 38.2791 69.4956 38.5426C68.9271 38.8186 68.3415 39.0444 67.7271 39.3141C68.508 41.3089 69.2831 43.2849 70.0583 45.2546C72.2746 50.9002 74.4909 56.5458 76.7072 62.1851C76.8105 62.4486 76.9024 62.7246 77 62.988V64.8699H76.9943ZM56.9614 61.7774H74.6746C71.7234 54.2687 68.7951 46.8165 65.8151 39.2263C62.8294 46.8353 59.9011 54.2813 56.9556 61.7774H56.9614ZM33.1562 39.2326C30.1705 46.8353 27.2479 54.2813 24.2967 61.7836H42.0099C39.0644 54.2813 36.1419 46.8353 33.1504 39.2326H33.1562ZM31.7782 71.2118C32.7255 71.2306 33.1332 70.8919 33.1504 70.3085C33.1677 69.7251 32.783 69.3864 32.1054 69.3362C30.1073 69.1857 28.6374 68.1444 27.6786 66.2186C27.3857 65.6289 26.9436 65.4407 26.49 65.6854C26.0135 65.9426 25.8699 66.4883 26.1628 67.0842C27.4144 69.6687 29.4183 70.986 31.7782 71.2118ZM64.4428 71.2118C65.3902 71.2369 65.7979 70.8982 65.8151 70.3148C65.8323 69.7314 65.4476 69.3864 64.7759 69.3362C62.7777 69.1857 61.3079 68.1444 60.349 66.2186C60.0562 65.6289 59.6141 65.4408 59.1605 65.6791C58.6839 65.9363 58.5403 66.4758 58.8274 67.078C60.0791 69.6624 62.083 70.986 64.4371 71.2118H64.4428Z" fill="white"/>
</svg>
