<svg width="100" height="100" viewBox="0 0 100 100" fill="none" xmlns="http://www.w3.org/2000/svg">
<rect x="1" y="1" width="98" height="98" rx="49" fill="#0040E3"/>
<rect x="1" y="1" width="98" height="98" rx="49" stroke="white" stroke-width="2"/>
<g clip-path="url(#clip0_114_47)">
<path d="M42.3061 74.0001C41.4677 73.9349 40.628 73.8836 39.7896 73.8033C36.8269 73.5189 33.9043 73.0439 31.226 71.6515C30.5718 71.3106 29.9465 70.8557 29.4201 70.3406C28.3423 69.2866 28.3711 68.0408 29.4126 66.9455C30.2385 66.077 31.2674 65.4917 32.3803 65.1232C33.8403 64.6407 35.3455 64.2911 36.8294 63.8813C37.1252 63.7998 37.3031 63.9051 37.4986 64.1419C39.2169 66.2286 40.9501 68.3028 42.6821 70.3782C43.1208 70.9033 43.3639 70.9045 43.7963 70.3857C45.5371 68.2978 47.2741 66.2061 49.0211 64.1231C49.1239 64.0003 49.3269 63.8537 49.456 63.875C51.93 64.2923 54.3425 64.8926 56.4354 66.3765C56.4994 66.4216 56.5583 66.473 56.6184 66.5231C58.2715 67.918 58.2627 69.4796 56.5633 70.8256C55.1521 71.9448 53.4815 72.5112 51.7683 72.9586C49.5701 73.5326 47.3305 73.8247 45.0621 73.9086C44.7676 73.9199 44.4755 73.9688 44.1823 74.0001H42.3061Z" fill="white"/>
<path d="M43.2099 68.6974C41.2021 66.231 39.2094 63.8448 37.2869 61.4022C34.5786 57.962 32.0558 54.3914 30.0644 50.4762C29.058 48.4961 28.202 46.4545 27.7759 44.2625C27.0302 40.4351 27.7859 36.857 29.7899 33.5697C32.3165 29.4239 36.0487 26.9462 40.8362 26.203C45.2401 25.52 49.2631 26.5715 52.8412 29.2547C52.9039 29.3011 52.9628 29.3525 53.0217 29.4051C53.0442 29.4251 53.0593 29.454 53.1106 29.5229C51.1217 30.6747 49.4799 32.1999 48.2016 34.155C45.8392 32.7125 43.3389 32.3102 40.6895 33.0671C38.6981 33.6361 37.0989 34.7879 35.887 36.4647C33.472 39.8047 33.6449 44.3603 36.2693 47.5536C38.6104 50.4023 43.4605 52.2446 48.2091 49.3771C49.6905 51.6292 51.6594 53.3374 54.1145 54.5042C50.9036 59.5536 47.11 64.0967 43.2111 68.6987L43.2099 68.6974Z" fill="white"/>
<path d="M60.0035 54.2647C53.1168 54.2697 47.4721 48.62 47.4846 41.7346C47.4972 34.8504 53.103 29.2584 59.9935 29.2559C66.9065 29.2534 72.5136 34.8605 72.5048 41.771C72.4973 48.6476 66.8801 54.2597 60.0035 54.2647ZM60.0073 32.1296C54.6984 32.1208 50.3797 36.402 50.3671 41.6845C50.3546 47.0409 54.647 51.3847 59.9646 51.3935C65.3086 51.4023 69.621 47.0973 69.6223 41.7509C69.6223 36.4145 65.3499 32.1384 60.0073 32.1296Z" fill="white"/>
<path d="M67.3176 72.2805C65.7961 72.2931 64.494 71.2767 64.0754 69.7264C63.4124 67.275 62.7594 64.8199 62.1015 62.366C61.9323 61.7343 61.7593 61.1027 61.5952 60.4685C61.4535 59.9208 61.6591 59.5449 62.203 59.397C63.7671 58.9721 65.3336 58.556 66.9027 58.1475C67.4805 57.9971 67.8327 58.2076 67.9893 58.7904C68.8252 61.906 69.6724 65.0191 70.4821 68.1423C71.0247 70.2327 69.4506 72.2617 67.3176 72.2793V72.2805Z" fill="white"/>
<path d="M65.3287 54.8228C65.5004 55.4632 65.6771 56.1199 65.8688 56.833C64.7284 57.14 63.613 57.4396 62.455 57.7504C62.2645 57.0373 62.0852 56.3693 61.9148 55.7314C63.0578 55.4268 64.1632 55.1323 65.3287 54.8228Z" fill="white"/>
<path d="M60.7818 40.9804C62.0088 40.9804 63.1768 40.9753 64.3449 40.9829C64.8098 40.9854 65.1444 41.2887 65.177 41.7035C65.2083 42.1033 64.8988 42.4554 64.4451 42.5331C64.3987 42.5407 64.3524 42.5469 64.306 42.5469C62.9011 42.5469 61.4949 42.5595 60.09 42.5419C59.5035 42.5344 59.214 42.2111 59.2102 41.6145C59.2027 40.2409 59.2027 38.8661 59.2102 37.4913C59.2127 36.9386 59.5411 36.5764 60.001 36.5776C60.466 36.5776 60.7781 36.9386 60.7806 37.4963C60.7856 38.6342 60.7818 39.7735 60.7818 40.9804Z" fill="white"/>
</g>
<defs>
<clipPath id="clip0_114_47">
<rect width="45.0122" height="48" fill="white" transform="translate(27.4939 26)"/>
</clipPath>
</defs>
</svg>
