<svg width="100" height="100" viewBox="0 0 100 100" fill="none" xmlns="http://www.w3.org/2000/svg">
<rect x="1" y="1" width="98" height="98" rx="49" fill="#0040E3"/>
<rect x="1" y="1" width="98" height="98" rx="49" stroke="white" stroke-width="2"/>
<g clip-path="url(#clip0_114_60)">
<path d="M62.3749 26.0001C64.0964 26.5956 65.8155 27.195 67.5383 27.7868C69.2773 28.3849 71.0202 28.973 72.7606 29.5698C73.7135 29.897 74.0106 30.3259 74.0106 31.3465C74.0106 33.9119 74.0006 36.4773 74.0132 39.0414C74.0307 42.6324 72.6465 45.6642 70.3118 48.3049C68.2003 50.6934 65.6337 52.4764 62.7648 53.8406C62.3059 54.0588 61.8445 54.1215 61.3668 53.8958C57.688 52.1504 54.4957 49.8045 52.2099 46.3714C50.7479 44.1747 49.9705 41.7535 49.9831 39.0928C49.9956 36.4961 49.9856 33.9006 49.9856 31.3039C49.9856 30.3296 50.3153 29.8807 51.2306 29.5698C54.6123 28.4213 57.9927 27.2677 61.3731 26.1142C61.4596 26.0853 61.5386 26.0377 61.6213 25.9976C61.8721 25.9976 62.1216 25.9976 62.3724 25.9976L62.3749 26.0001ZM61.2201 40.1498C60.5581 39.5843 59.9512 39.0452 59.3218 38.5323C58.3914 37.775 57.1965 37.8665 56.4755 38.7279C55.7445 39.6031 55.8486 40.7767 56.7526 41.5654C57.8936 42.5622 59.0447 43.5477 60.2032 44.5257C61.0671 45.2542 62.2708 45.1564 63.0144 44.3051C63.3015 43.9766 63.561 43.623 63.8319 43.2782C65.4142 41.2632 67.0054 39.2558 68.5714 37.2283C69.2686 36.3255 69.0905 35.103 68.2191 34.4322C67.3665 33.7765 66.1778 33.9194 65.4518 34.7733C65.2399 35.0228 65.0406 35.2848 64.8387 35.5431C63.6425 37.0641 62.4476 38.5862 61.2213 40.1485L61.2201 40.1498Z" fill="white"/>
<path d="M25.9595 50.6844C26.278 50.1703 26.7306 50.0161 27.3362 50.0161C29.9618 50.0174 32.5359 50.3233 35.0324 51.1609C36.4454 51.6361 36.9382 52.5777 36.5357 53.9958C35.1051 59.0326 33.6744 64.0693 32.2438 69.1048C32.0394 69.822 31.751 70.0514 31.0025 70.0552C29.5643 70.0615 28.1261 70.0715 26.6892 70.0427C26.4447 70.0376 26.2027 69.8433 25.9607 69.7367C25.9607 63.3859 25.9607 57.0352 25.9607 50.6844H25.9595Z" fill="white"/>
<path d="M35.4663 68.7048C36.8882 63.6793 38.2963 58.704 39.7181 53.6836C41.1626 53.7764 42.6434 53.9582 44.0226 54.5086C45.3203 55.0265 46.5905 55.6459 47.8005 56.3455C48.692 56.8596 49.6173 57.0928 50.6053 57.2759C52.1037 57.5517 53.5995 57.8827 55.0565 58.3191C55.7511 58.5272 56.4082 58.9673 56.9925 59.4187C57.8376 60.0707 58.1209 61.0061 57.9529 62.0581C57.8275 62.838 57.336 63.3332 56.6288 63.6329C55.7135 64.0204 54.7456 64.0592 53.7751 64.0379C51.0968 63.979 48.46 63.5564 45.8269 63.1101C45.783 63.1025 45.7366 63.105 45.6413 63.2066C46.6921 63.7433 47.724 64.3213 48.7985 64.8065C50.3984 65.5287 52.0611 66.0566 53.844 66.0867C55.296 66.1118 56.6527 65.6805 57.9767 65.1651C60.3754 64.2323 62.7464 63.2304 65.1387 62.285C66.5456 61.7296 67.9712 61.2067 69.4934 61.0575C70.7096 60.9384 71.8682 61.1478 72.875 61.8763C73.1947 62.1082 73.4806 62.4292 73.685 62.7678C74.2292 63.6668 74.1753 64.3627 73.3452 64.9908C72.1039 65.9312 70.8262 66.8453 69.4708 67.6064C65.0246 70.1028 60.3841 72.1491 55.4577 73.5321C52.7695 74.2869 50.1602 74.06 47.5259 73.3114C43.3869 72.134 39.4385 70.4752 35.4676 68.7035L35.4663 68.7048Z" fill="white"/>
</g>
<defs>
<clipPath id="clip0_114_60">
<rect width="48.0815" height="48" fill="white" transform="translate(25.9595 26)"/>
</clipPath>
</defs>
</svg>
