<svg xmlns="http://www.w3.org/2000/svg" xmlns:xlink="http://www.w3.org/1999/xlink" width="350" zoomAndPan="magnify" viewBox="0 0 262.5 149.999998" height="200" preserveAspectRatio="xMidYMid meet" version="1.0"><path stroke-linecap="round" transform="matrix(0.140259, 0, 0, 0.140259, 132.891598, 75.848071)" fill="none" stroke-linejoin="round" d="M 379.953809 -0.00295713 C 379.953809 -209.826622 209.844578 -379.935853 -0.00693715 -379.935853 C -209.830602 -379.935853 -379.939833 -209.826622 -379.939833 -0.00295713 C -379.939833 209.848558 -209.830602 379.957789 -0.00693715 379.957789 C 209.844578 379.957789 379.953809 209.848558 379.953809 -0.00295713 Z M 379.953809 -0.00295713 " stroke="#313131" stroke-width="3" stroke-opacity="1" stroke-miterlimit="4"/><path fill="#002fa7" d="M 152.0625 22.558594 C 152.0625 11.96875 143.480469 3.386719 132.890625 3.386719 C 122.304688 3.386719 113.722656 11.96875 113.722656 22.558594 C 113.722656 33.144531 122.304688 41.726562 132.890625 41.726562 C 143.480469 41.726562 152.0625 33.144531 152.0625 22.558594 Z M 152.0625 22.558594 " fill-opacity="1" fill-rule="nonzero"/><path fill="#fcba20" d="M 139.851562 11.847656 C 139.851562 11.847656 130.261719 11.847656 130.261719 11.847656 C 130.261719 11.847656 130.261719 21.433594 130.261719 21.433594 C 130.261719 21.433594 139.851562 21.433594 139.851562 21.433594 C 139.851562 21.433594 139.851562 11.847656 139.851562 11.847656 Z M 139.851562 11.847656 " fill-opacity="1" fill-rule="nonzero"/><path stroke-linecap="round" transform="matrix(0.140259, 0, 0, 0.140259, 57.151665, -6.413345)" fill="none" stroke-linejoin="round" d="M 521.249827 164.366969 C 521.249827 164.366969 589.622152 164.366969 589.622152 164.366969 " stroke="#313131" stroke-width="3" stroke-opacity="1" stroke-miterlimit="4"/><path fill="#ffffff" d="M 136.589844 13.042969 C 136.589844 13.042969 133.523438 13.042969 133.523438 13.042969 C 133.523438 13.042969 133.523438 11.847656 133.523438 11.847656 C 133.523438 11.847656 136.589844 11.847656 136.589844 11.847656 C 136.589844 11.847656 136.589844 13.042969 136.589844 13.042969 Z M 136.589844 13.042969 " fill-opacity="1" fill-rule="nonzero"/><path fill="#fcba20" d="M 132.890625 21.433594 C 132.890625 21.433594 123.304688 21.433594 123.304688 21.433594 C 123.304688 21.433594 123.304688 31.023438 123.304688 31.023438 C 123.304688 31.023438 132.890625 31.023438 132.890625 31.023438 C 132.890625 31.023438 132.890625 21.433594 132.890625 21.433594 Z M 132.890625 21.433594 " fill-opacity="1" fill-rule="nonzero"/><path fill="#ffffff" d="M 142.476562 21.433594 C 142.476562 21.433594 132.890625 21.433594 132.890625 21.433594 C 132.890625 21.433594 132.890625 31.023438 132.890625 31.023438 C 132.890625 31.023438 142.476562 31.023438 142.476562 31.023438 C 142.476562 31.023438 142.476562 21.433594 142.476562 21.433594 Z M 142.476562 21.433594 " fill-opacity="1" fill-rule="nonzero"/><path stroke-linecap="round" transform="matrix(0.140259, 0, 0, 0.140259, 57.151665, -6.413345)" fill="none" stroke-linejoin="round" d="M 539.993034 198.539207 C 539.993034 198.539207 539.993034 266.911532 539.993034 266.911532 " stroke="#313131" stroke-width="3" stroke-opacity="1" stroke-miterlimit="4"/><path stroke-linecap="round" transform="matrix(0.140259, 0, 0, 0.140259, 57.151665, -6.413345)" fill="none" stroke-linejoin="round" d="M 548.013902 258.890664 C 548.013902 258.890664 567.425515 258.890664 567.425515 258.890664 " stroke="#313131" stroke-width="3" stroke-opacity="1" stroke-miterlimit="4"/><path stroke-linecap="round" transform="matrix(0.140259, 0, 0, 0.140259, 57.151665, -6.413345)" fill="none" stroke-linejoin="round" d="M 548.013902 252.624361 C 548.013902 252.624361 572.160055 252.624361 572.160055 252.624361 " stroke="#313131" stroke-width="3" stroke-opacity="1" stroke-miterlimit="4"/><path stroke-linecap="round" transform="matrix(0.140259, 0, 0, 0.140259, 57.151665, -6.413345)" fill="none" stroke-linejoin="round" d="M 479.641577 258.890664 C 479.641577 258.890664 499.08104 258.890664 499.08104 258.890664 " stroke="#313131" stroke-width="3" stroke-opacity="1" stroke-miterlimit="4"/><path stroke-linecap="round" transform="matrix(0.140259, 0, 0, 0.140259, 57.151665, -6.413345)" fill="none" stroke-linejoin="round" d="M 479.641577 252.624361 C 479.641577 252.624361 503.81558 252.624361 503.81558 252.624361 " stroke="#313131" stroke-width="3" stroke-opacity="1" stroke-miterlimit="4"/><path fill="#ffffff" d="M 129.628906 22.628906 C 129.628906 22.628906 126.566406 22.628906 126.566406 22.628906 C 126.566406 22.628906 126.566406 21.433594 126.566406 21.433594 C 126.566406 21.433594 129.628906 21.433594 129.628906 21.433594 C 129.628906 21.433594 129.628906 22.628906 129.628906 22.628906 Z M 129.628906 22.628906 " fill-opacity="1" fill-rule="nonzero"/><path fill="#fdbb21" d="M 139.214844 22.628906 C 139.214844 22.628906 136.152344 22.628906 136.152344 22.628906 C 136.152344 22.628906 136.152344 21.433594 136.152344 21.433594 C 136.152344 21.433594 139.214844 21.433594 139.214844 21.433594 C 139.214844 21.433594 139.214844 22.628906 139.214844 22.628906 Z M 139.214844 22.628906 " fill-opacity="1" fill-rule="nonzero"/><path fill="#002fa7" d="M 77.15625 85.890625 C 67.988281 91.183594 64.84375 102.910156 70.136719 112.078125 C 75.433594 121.246094 87.15625 124.390625 96.324219 119.09375 C 105.496094 113.800781 108.636719 102.078125 103.34375 92.910156 C 98.046875 83.738281 86.324219 80.597656 77.15625 85.890625 Z M 77.15625 85.890625 " fill-opacity="1" fill-rule="nonzero"/><path fill="#fcba20" d="M 98.414062 103.503906 C 98.414062 103.503906 82.867188 103.503906 82.867188 103.503906 C 82.867188 103.503906 82.867188 94.902344 82.867188 94.902344 C 82.867188 94.515625 83.183594 94.203125 83.570312 94.203125 C 83.570312 94.203125 97.714844 94.203125 97.714844 94.203125 C 98.101562 94.203125 98.414062 94.515625 98.414062 94.902344 C 98.414062 94.902344 98.414062 103.503906 98.414062 103.503906 Z M 98.414062 103.503906 " fill-opacity="1" fill-rule="nonzero"/><path fill="#fdbb21" d="M 74.257812 103.503906 C 74.257812 103.503906 98.414062 103.503906 98.414062 103.503906 C 98.414062 103.503906 98.414062 107.835938 98.414062 107.835938 C 98.414062 107.835938 74.257812 107.835938 74.257812 107.835938 C 74.257812 107.835938 74.257812 103.503906 74.257812 103.503906 Z M 74.257812 103.503906 " fill-opacity="1" fill-rule="nonzero"/><path fill="#fdbb21" d="M 74.257812 104.40625 C 74.257812 104.40625 74.257812 101.714844 74.257812 101.714844 C 74.257812 101.207031 74.457031 100.722656 74.816406 100.363281 C 74.816406 100.363281 78.277344 96.902344 78.277344 96.902344 C 78.636719 96.542969 79.121094 96.34375 79.628906 96.34375 C 79.628906 96.34375 82.867188 96.34375 82.867188 96.34375 C 82.867188 96.34375 82.867188 104.40625 82.867188 104.40625 C 82.867188 104.40625 74.257812 104.40625 74.257812 104.40625 Z M 74.257812 104.40625 " fill-opacity="1" fill-rule="nonzero"/><path fill="#ffffff" d="M 75.15625 103.503906 C 75.15625 103.503906 75.15625 102.089844 75.15625 102.089844 C 75.15625 101.582031 75.359375 101.09375 75.71875 100.738281 C 75.71875 100.738281 78.648438 97.804688 78.648438 97.804688 C 79.007812 97.445312 79.496094 97.246094 80 97.246094 C 80 97.246094 81.964844 97.246094 81.964844 97.246094 C 81.964844 97.246094 81.964844 103.503906 81.964844 103.503906 C 81.964844 103.503906 75.15625 103.503906 75.15625 103.503906 Z M 75.15625 103.503906 " fill-opacity="1" fill-rule="nonzero"/><path fill="#ffffff" d="M 82.464844 108.402344 C 82.464844 107.082031 81.398438 106.015625 80.082031 106.015625 C 78.765625 106.015625 77.695312 107.082031 77.695312 108.402344 C 77.695312 109.71875 78.765625 110.785156 80.082031 110.785156 C 81.398438 110.785156 82.464844 109.71875 82.464844 108.402344 Z M 82.464844 108.402344 " fill-opacity="1" fill-rule="nonzero"/><path fill="#ffffff" d="M 96.804688 108.402344 C 96.804688 107.082031 95.738281 106.015625 94.421875 106.015625 C 93.105469 106.015625 92.039062 107.082031 92.039062 108.402344 C 92.039062 109.71875 93.105469 110.785156 94.421875 110.785156 C 95.738281 110.785156 96.804688 109.71875 96.804688 108.402344 Z M 96.804688 108.402344 " fill-opacity="1" fill-rule="nonzero"/><path fill="#fdbb21" d="M 81.402344 108.402344 C 81.402344 107.671875 80.8125 107.078125 80.082031 107.078125 C 79.351562 107.078125 78.757812 107.671875 78.757812 108.402344 C 78.757812 109.128906 79.351562 109.722656 80.082031 109.722656 C 80.8125 109.722656 81.402344 109.128906 81.402344 108.402344 Z M 81.402344 108.402344 " fill-opacity="1" fill-rule="nonzero"/><path fill="#fdbb21" d="M 95.746094 108.402344 C 95.746094 107.671875 95.152344 107.078125 94.421875 107.078125 C 93.691406 107.078125 93.101562 107.671875 93.101562 108.402344 C 93.101562 109.128906 93.691406 109.722656 94.421875 109.722656 C 95.152344 109.722656 95.746094 109.128906 95.746094 108.402344 Z M 95.746094 108.402344 " fill-opacity="1" fill-rule="nonzero"/><path fill="#ffffff" d="M 75.0625 107.835938 C 75.0625 107.835938 73.664062 107.835938 73.664062 107.835938 C 73.664062 107.835938 73.664062 106.015625 73.664062 106.015625 C 73.664062 106.015625 75.0625 106.015625 75.0625 106.015625 C 75.0625 106.015625 75.0625 107.835938 75.0625 107.835938 Z M 75.0625 107.835938 " fill-opacity="1" fill-rule="nonzero"/><path fill="#fcba20" d="M 75.0625 106.015625 C 75.0625 106.015625 73.664062 106.015625 73.664062 106.015625 C 73.664062 106.015625 73.664062 104.195312 73.664062 104.195312 C 73.664062 104.195312 75.0625 104.195312 75.0625 104.195312 C 75.0625 104.195312 75.0625 106.015625 75.0625 106.015625 Z M 75.0625 106.015625 " fill-opacity="1" fill-rule="nonzero"/><path fill="#ffffff" d="M 93.320312 97.25 C 93.320312 97.25 86.605469 97.25 86.605469 97.25 C 86.605469 97.25 86.605469 95.894531 86.605469 95.894531 C 86.605469 95.894531 94.675781 95.894531 94.675781 95.894531 C 94.675781 96.644531 94.070312 97.25 93.320312 97.25 Z M 93.320312 97.25 " fill-opacity="1" fill-rule="nonzero"/><path fill="#ffffff" d="M 91.921875 99.53125 C 91.921875 99.53125 86.605469 99.53125 86.605469 99.53125 C 86.605469 99.53125 86.605469 98.175781 86.605469 98.175781 C 86.605469 98.175781 93.277344 98.175781 93.277344 98.175781 C 93.277344 98.925781 92.671875 99.53125 91.921875 99.53125 Z M 91.921875 99.53125 " fill-opacity="1" fill-rule="nonzero"/><path fill="#ffffff" d="M 90.523438 101.8125 C 90.523438 101.8125 86.605469 101.8125 86.605469 101.8125 C 86.605469 101.8125 86.605469 100.457031 86.605469 100.457031 C 86.605469 100.457031 91.878906 100.457031 91.878906 100.457031 C 91.878906 101.207031 91.273438 101.8125 90.523438 101.8125 Z M 90.523438 101.8125 " fill-opacity="1" fill-rule="nonzero"/><path fill="#002fa7" d="M 169.457031 119.09375 C 178.625 124.390625 190.351562 121.246094 195.644531 112.078125 C 200.9375 102.910156 197.796875 91.183594 188.628906 85.890625 C 179.457031 80.597656 167.734375 83.738281 162.441406 92.910156 C 157.148438 102.078125 160.289062 113.800781 169.457031 119.09375 Z M 169.457031 119.09375 " fill-opacity="1" fill-rule="nonzero"/><path fill="#ffffff" d="M 179.042969 91.90625 C 175.101562 91.90625 171.902344 95.101562 171.902344 99.046875 C 171.902344 106.152344 179.042969 113.082031 179.042969 113.082031 C 179.042969 113.082031 186.183594 106.152344 186.183594 99.046875 C 186.183594 95.101562 182.988281 91.90625 179.042969 91.90625 Z M 179.042969 103 C 176.859375 103 175.089844 101.230469 175.089844 99.046875 C 175.089844 96.863281 176.859375 95.09375 179.042969 95.09375 C 181.226562 95.09375 182.996094 96.863281 182.996094 99.046875 C 182.996094 101.230469 181.226562 103 179.042969 103 Z M 179.042969 103 " fill-opacity="1" fill-rule="nonzero"/><path fill="#fcba20" d="M 132.890625 57.835938 C 132.890625 57.835938 115.832031 65.957031 115.832031 65.957031 C 115.832031 65.957031 132.890625 74.078125 132.890625 74.078125 C 132.890625 74.078125 149.949219 65.957031 149.949219 65.957031 C 149.949219 65.957031 132.890625 57.835938 132.890625 57.835938 Z M 132.890625 57.835938 " fill-opacity="1" fill-rule="nonzero"/><path fill="#fcba20" d="M 132.890625 93.859375 C 132.890625 93.859375 115.832031 85.738281 115.832031 85.738281 C 115.832031 85.738281 115.832031 65.957031 115.832031 65.957031 C 115.832031 65.957031 132.890625 74.078125 132.890625 74.078125 C 132.890625 74.078125 132.890625 93.859375 132.890625 93.859375 Z M 132.890625 93.859375 " fill-opacity="1" fill-rule="nonzero"/><path fill="#fcba20" d="M 132.890625 93.859375 C 132.890625 93.859375 149.949219 85.738281 149.949219 85.738281 C 149.949219 85.738281 149.949219 65.957031 149.949219 65.957031 C 149.949219 65.957031 132.890625 74.078125 132.890625 74.078125 C 132.890625 74.078125 132.890625 93.859375 132.890625 93.859375 Z M 132.890625 93.859375 " fill-opacity="1" fill-rule="nonzero"/><path stroke-linecap="round" transform="matrix(0.140259, 0, 0, 0.140259, 132.891598, 65.957843)" fill="none" stroke-linejoin="round" d="M 121.615036 -0.00578577 C 121.615036 -0.00578577 -0.00693715 57.894851 -0.00693715 57.894851 C -0.00693715 57.894851 -121.62891 -0.00578577 -121.62891 -0.00578577 C -121.62891 -0.00578577 -0.00693715 -57.906423 -0.00693715 -57.906423 " stroke="#313131" stroke-width="3" stroke-opacity="1" stroke-miterlimit="4"/><path stroke-linecap="round" transform="matrix(0.140259, 0, 0, 0.140259, 57.151665, -6.413345)" fill="none" stroke-linejoin="round" d="M 539.993034 573.876813 C 539.993034 573.876813 539.993034 714.9104 539.993034 714.9104 " stroke="#313131" stroke-width="3" stroke-opacity="1" stroke-miterlimit="4"/><path stroke-linecap="round" transform="matrix(0.140259, 0, 0, 0.140259, 132.891598, 65.957843)" fill="none" stroke-linejoin="round" d="M 60.817974 -28.942179 C 60.817974 -28.942179 -60.803998 28.958458 -60.803998 28.958458 " stroke="#313131" stroke-width="3" stroke-opacity="1" stroke-miterlimit="4"/></svg>