<svg width="100" height="100" viewBox="0 0 100 100" fill="none" xmlns="http://www.w3.org/2000/svg">
<circle cx="50" cy="50" r="50" fill="#002FA7"/>
<g clip-path="url(#clip0_45_1121)">
<path d="M57.098 73.8346H38.8237C38.1992 69.9676 35.9518 67.7494 32.6579 67.7202C29.3262 67.6911 27.0702 69.8733 26.3617 73.8569C25.6068 73.8569 24.8382 73.8946 24.0765 73.8449C23.5087 73.8071 23.1467 73.44 23.042 72.867C23.0077 72.68 23.006 72.4844 23.006 72.2923C23.0009 63.5411 23.0009 54.7899 23.0009 46.0404C23.0009 45.9341 22.9974 45.826 23.0043 45.7196C23.0575 44.8927 23.4829 44.4655 24.3116 44.4604C26.3016 44.4501 28.2917 44.4707 30.2801 44.445C30.7141 44.4398 30.9114 44.5925 31.1001 44.9682C32.9718 48.6996 35.1129 52.2714 37.4907 55.7026C38.9506 57.8093 41.1689 57.8196 42.6202 55.7232C44.9963 52.292 47.1391 48.7185 49.0125 44.9888C49.2149 44.5873 49.4362 44.4398 49.8857 44.445C51.8329 44.4707 53.7801 44.4518 55.7256 44.4587C56.6726 44.4621 57.1169 44.891 57.1169 45.8226C57.1203 55.0215 57.1203 64.2222 57.1169 73.4211C57.1169 73.5463 57.1032 73.6699 57.0929 73.8346H57.098Z" fill="white"/>
<path d="M50.3628 34.7056C50.3422 36.2839 49.6217 38.497 48.7296 40.6552C46.6623 45.6562 43.8694 50.2539 40.8156 54.7007C40.349 55.3801 39.7811 55.4024 39.3334 54.7419C36.0154 49.8542 32.9154 44.8447 30.867 39.2639C29.8634 36.5276 29.2989 33.7329 30.1704 30.8558C31.4211 26.7419 34.0511 23.9746 38.3555 23.17C42.8057 22.3397 47.0449 24.6077 49.1379 28.7217C49.9665 30.3497 50.3783 32.0808 50.3645 34.7056H50.3628ZM44.9433 33.2662C44.9382 30.5899 42.7594 28.418 40.0745 28.4129C37.369 28.4077 35.1679 30.6019 35.1679 33.304C35.1679 36.0094 37.3725 38.1985 40.0779 38.1848C42.7988 38.1711 44.9485 35.9974 44.9416 33.2662H44.9433Z" fill="white"/>
<path d="M59.2083 73.8311V51.568C59.3678 51.5525 59.5291 51.5217 59.6921 51.5217C61.9172 51.5182 64.144 51.4925 66.3674 51.544C66.7825 51.5543 67.2886 51.7807 67.5837 52.0775C68.529 53.0297 69.3937 54.0607 70.4093 55.1982C69.3199 55.1982 68.3849 55.2513 67.4602 55.1879C65.127 55.0266 64.1543 56.0714 64.3138 58.3359C64.3687 59.1234 64.319 59.9194 64.3241 60.7103C64.3327 62.22 65.2008 63.1104 66.7105 63.1156C69.9203 63.1276 73.1302 63.119 76.3383 63.119C76.5682 63.119 76.7981 63.119 77.088 63.119C77.1018 63.4106 77.1206 63.6388 77.1206 63.8653C77.1224 66.6462 77.1241 69.4289 77.1206 72.2098C77.1206 73.4931 76.7501 73.8671 75.4874 73.8688C74.9127 73.8688 74.3397 73.8688 73.7204 73.8688C73.6174 71.8942 72.8711 70.2695 71.346 69.0549C70.164 68.113 68.7966 67.6807 67.2886 67.7288C64.7719 67.8094 61.6255 69.6399 61.3133 73.8311H59.2065H59.2083Z" fill="white"/>
<path d="M32.5944 77.9984C30.3093 77.9984 28.4856 76.1748 28.4839 73.8913C28.4839 71.6216 30.3299 69.7722 32.5978 69.7739C34.8676 69.7739 36.7101 71.6233 36.7084 73.8965C36.7067 76.1799 34.8813 78.0001 32.5944 78.0001V77.9984Z" fill="white"/>
<path d="M67.4908 77.9983C65.2143 77.9863 63.4026 76.1438 63.4146 73.8552C63.4249 71.5923 65.2949 69.7532 67.5629 69.7721C69.8309 69.791 71.6545 71.649 71.6391 73.9273C71.6237 76.2038 69.7828 78.0103 67.4908 77.9966V77.9983Z" fill="white"/>
<path d="M66.4221 57.2518C67.5664 57.2518 68.6884 57.3634 69.7778 57.2261C71.562 57.0031 72.8967 57.5229 73.89 59.0532C74.3378 59.7411 74.9812 60.3021 75.6125 61.0038H66.4204V57.2501L66.4221 57.2518Z" fill="white"/>
<path d="M42.8878 33.3247C42.8724 34.9202 41.6097 36.1503 40.0091 36.128C38.4651 36.1074 37.2144 34.8275 37.2281 33.2801C37.2419 31.7138 38.5423 30.4494 40.1206 30.47C41.6663 30.4888 42.9033 31.7652 42.8878 33.3247Z" fill="white"/>
</g>
<defs>
<clipPath id="clip0_45_1121">
<rect width="55" height="55" fill="white" transform="translate(23 23)"/>
</clipPath>
</defs>
</svg>
