<svg width="100" height="100" viewBox="0 0 100 100" fill="none" xmlns="http://www.w3.org/2000/svg">
<circle cx="50" cy="50" r="49.5" fill="#002FA7" stroke="white"/>
<g clip-path="url(#clip0_45_1123)">
<path d="M49.5382 70.2941C46.7395 70.2941 43.9422 70.2971 41.1436 70.2941C38.9066 70.2912 37.6919 68.982 37.5963 66.7202C37.4819 64.0005 38.0234 61.4922 39.5017 59.2069C42.2135 55.0137 47.2636 52.8884 52.0198 53.9437C56.9932 55.0474 60.7214 58.9912 61.4467 64.046C61.6132 65.2099 61.5756 66.4281 61.4612 67.6053C61.3106 69.1654 59.9222 70.278 58.2586 70.2897C55.5323 70.3088 52.8074 70.2956 50.0811 70.2956C49.9001 70.2956 49.7206 70.2956 49.5396 70.2956L49.5382 70.2941Z" fill="white"/>
<path d="M55.645 46.4331C55.6392 49.8529 52.9071 52.5975 49.5293 52.5799C46.1833 52.5623 43.4888 49.8059 43.4946 46.4052C43.5004 42.9883 46.2325 40.2422 49.6118 40.2598C52.9592 40.276 55.6522 43.0324 55.6464 46.4331H55.645Z" fill="white"/>
<path d="M57.3795 28.4432C57.1493 28.6928 57.0334 28.8527 56.8872 28.9731C55.7651 29.8963 54.6445 30.8195 53.5079 31.7236C53.1952 31.9731 53.1069 32.2094 53.2242 32.613C53.6194 33.981 53.9799 35.3591 54.3274 36.7403C54.3868 36.9766 54.3144 37.2481 54.3042 37.502C54.061 37.4418 53.783 37.4404 53.5818 37.3127C52.438 36.5803 51.3 35.8362 50.1851 35.0583C49.7551 34.7574 49.4322 34.7222 48.9805 35.0421C47.8425 35.8494 46.6683 36.6052 45.4955 37.3597C45.3218 37.4712 45.0757 37.4683 44.8643 37.5167C44.8382 37.2848 44.7456 37.0353 44.7991 36.8239C45.1538 35.4061 45.5245 33.9927 45.9241 32.5881C46.0327 32.2079 45.9545 31.9775 45.6577 31.7397C44.5096 30.8224 43.3701 29.8919 42.2408 28.9496C42.0916 28.8249 42.0193 28.6076 41.9121 28.433C42.1032 28.3332 42.2914 28.1585 42.4884 28.1453C43.9116 28.0528 45.3363 27.9809 46.7624 27.931C47.2185 27.9149 47.4704 27.7622 47.6311 27.2984C48.0973 25.954 48.6099 24.6257 49.1296 23.3018C49.2093 23.0978 49.4279 22.9496 49.5828 22.7749C49.7319 22.9569 49.9404 23.1154 50.0215 23.3238C50.5398 24.6492 51.0466 25.9789 51.5186 27.3219C51.6721 27.7563 51.9139 27.9119 52.3482 27.9281C53.8091 27.9824 55.27 28.0572 56.7308 28.1482C56.922 28.16 57.1029 28.3111 57.3795 28.4403V28.4432Z" fill="white"/>
<path d="M63.3012 64.5656C62.7395 61.2603 62.3645 60.2784 60.5938 57.4897C61.2076 57.1888 61.7926 56.8469 62.4166 56.6047C67.5434 54.6101 73.2813 57.4883 74.9028 62.8102C75.2561 63.9712 74.6046 64.6023 73.6041 64.5862C70.3551 64.5333 67.1047 64.5656 63.8543 64.5656C63.6777 64.5656 63.501 64.5656 63.3027 64.5656H63.3012Z" fill="white"/>
<path d="M38.5243 57.5524C37.0142 59.638 36.1368 61.9482 35.8617 64.527C35.6865 64.5402 35.5302 64.5637 35.3738 64.5637C32.051 64.5652 28.7282 64.5681 25.4054 64.5637C24.3774 64.5637 23.9387 63.9619 24.2109 62.9492C25.8441 56.8816 33.1108 54.0328 38.3462 57.4086C38.3911 57.4379 38.4288 57.4761 38.5243 57.5539V57.5524Z" fill="white"/>
<path d="M28.5459 49.9999C28.543 47.311 30.7278 45.1021 33.3759 45.1153C36.0052 45.1285 38.1669 47.3257 38.1698 49.9881C38.1726 52.6711 35.9835 54.883 33.3339 54.8727C30.7046 54.8624 28.5473 52.6682 28.5459 50.0013V49.9999Z" fill="white"/>
<path d="M70.5941 50.0145C70.584 52.7034 68.3905 54.8961 65.7366 54.8712C63.1117 54.8462 60.9558 52.6314 60.9703 49.9719C60.9848 47.3066 63.1507 45.1182 65.7771 45.1138C68.4296 45.1094 70.6043 47.3227 70.5941 50.013V50.0145Z" fill="white"/>
<path d="M59.1559 20.7497C58.9489 21.0638 58.8316 21.3368 58.6362 21.5217C57.6864 22.4156 56.7192 23.2903 55.7492 24.1621C55.3047 24.5614 54.7979 24.5599 54.4519 24.1827C54.1059 23.8055 54.142 23.2815 54.575 22.8794C55.558 21.9679 56.5324 21.0447 57.5575 20.1846C57.7848 19.9938 58.2409 19.9336 58.5334 20.0173C58.7723 20.0863 58.9257 20.4605 59.1559 20.7482V20.7497Z" fill="white"/>
<path d="M40.8971 19.7939C41.2084 19.9613 41.4386 20.0347 41.6037 20.1829C42.5911 21.0635 43.5684 21.9574 44.537 22.8571C44.9801 23.268 45.0206 23.7759 44.6775 24.1619C44.3416 24.5391 43.8174 24.5479 43.3802 24.1531C42.3971 23.268 41.4241 22.3698 40.4454 21.4804C40.1283 21.1927 39.9893 20.814 40.1862 20.45C40.3296 20.1844 40.6467 20.0156 40.8957 19.7939H40.8971Z" fill="white"/>
</g>
<defs>
<clipPath id="clip0_45_1123">
<rect width="51" height="55" fill="white" transform="translate(24 22)"/>
</clipPath>
</defs>
</svg>
