<svg width="100" height="100" viewBox="0 0 100 100" fill="none" xmlns="http://www.w3.org/2000/svg">
<rect x="1" y="1" width="98" height="98" rx="49" fill="#0040E3"/>
<rect x="1" y="1" width="98" height="98" rx="49" stroke="white" stroke-width="2"/>
<g clip-path="url(#clip0_114_21)">
<path d="M53.8639 48.0996C56.3765 46.4825 59.0479 45.5776 62.0264 45.3528C62.0264 45.1764 62.0264 45 62.0264 44.8223C62.0264 43.395 62.0075 41.9663 62.0439 40.539C62.0506 40.2644 62.2122 39.8618 62.4182 39.7635C62.6188 39.6679 63.0336 39.8106 63.245 39.9829C66.7162 42.8214 70.17 45.68 73.6251 48.5372C74.1557 48.9762 74.1516 49.3074 73.6022 49.7626C70.1337 52.6306 66.6664 55.4986 63.1817 58.3478C62.9864 58.5081 62.5933 58.601 62.3805 58.5121C62.1974 58.4367 62.0466 58.0597 62.0412 57.8119C62.0089 56.4358 62.025 55.057 62.025 53.6809C62.025 53.4991 62.025 53.3187 62.025 53.0655C59.2499 53.456 57.1022 54.754 55.5053 56.9771C53.903 59.2082 53.6929 61.7585 53.7723 64.4084C53.7198 64.3047 53.6592 64.2038 53.6148 64.096C52.1148 60.5184 49.7692 57.6248 46.5726 55.4259C46.2737 55.2199 46.1646 55.0139 46.166 54.653C46.1781 49.3115 46.1741 43.9699 46.1741 38.6284V37.9861C45.9425 37.9861 45.762 37.9861 45.5816 37.9861C44.1705 37.9861 42.7593 38.0049 41.3482 37.9686C41.0897 37.9618 40.7329 37.7949 40.6144 37.5902C40.5174 37.4232 40.6278 37.0247 40.78 36.8389C43.6413 33.3433 46.5201 29.8626 49.4003 26.3833C49.8338 25.8595 50.1826 25.8689 50.6323 26.4129C53.5017 29.8802 56.3711 33.3474 59.2216 36.8294C59.3751 37.0179 59.4923 37.4125 59.398 37.5821C59.2836 37.7881 58.9267 37.9618 58.6696 37.9686C57.2598 38.0049 55.8473 37.9861 54.4362 37.9861C54.2544 37.9861 54.074 37.9861 53.8626 37.9861V48.0969L53.8639 48.0996Z" fill="white"/>
<path d="M37.9817 61.2258C37.9817 62.5723 37.9817 63.8959 37.9817 65.2209C37.9817 65.3892 38.0235 65.571 37.9723 65.7218C37.8834 65.9897 37.7986 66.3654 37.5993 66.4596C37.4027 66.5526 37.0069 66.4314 36.8035 66.2698C35.4503 65.1926 34.1267 64.0804 32.7937 62.9789C30.7093 61.2581 28.6262 59.5359 26.5405 57.8151C25.7905 57.1971 25.7946 56.9614 26.554 56.334C29.9337 53.544 33.3107 50.7527 36.6904 47.9628C36.9476 47.7514 37.194 47.4794 37.5778 47.6477C37.9992 47.8335 37.9831 48.2186 37.9817 48.5943C37.979 50.0391 37.9871 51.4825 37.975 52.9273C37.9723 53.2438 38.0369 53.3959 38.3978 53.4498C42.7712 54.1028 46.4189 56.1199 49.3206 59.435C52.3596 62.9062 53.8745 66.9727 53.8314 71.6019C53.826 72.1728 53.8314 72.7438 53.8314 73.3147C53.8314 73.7698 53.5998 73.9973 53.1487 73.9973C51.0495 73.9987 48.9503 74.0027 46.8498 73.9947C46.3718 73.9933 46.194 73.7698 46.1698 73.2608C46.1105 71.9722 46.1509 70.6675 45.9557 69.399C45.3552 65.4942 41.9956 62.0202 38.1541 61.2096C38.1231 61.2029 38.0881 61.215 37.979 61.2258H37.9817Z" fill="white"/>
</g>
<defs>
<clipPath id="clip0_114_21">
<rect width="48.0364" height="48" fill="white" transform="translate(25.9819 26)"/>
</clipPath>
</defs>
</svg>
