<svg width="80" height="80" viewBox="0 0 80 80" fill="none" xmlns="http://www.w3.org/2000/svg">
<rect x="1" y="1" width="78" height="78" rx="39" fill="#002FA7"/>
<rect x="1" y="1" width="78" height="78" rx="39" stroke="white" stroke-width="2"/>
<g clip-path="url(#clip0_45_1480)">
<path d="M42.9058 54.8857C36.9555 56.6376 29.3501 54.8373 24.5151 48.33C19.8442 42.0419 19.834 33.4668 24.4508 27.139C29.0404 20.8475 37.2601 18.3533 44.3883 21.1185C51.9413 24.0476 55.9115 31.3921 55.7829 37.7302H51.9345C51.8583 36.9897 51.816 36.2579 51.7043 35.5364C50.7939 29.666 46.1365 24.9918 40.3893 24.1633C33.2527 23.1346 26.6728 27.8157 25.192 34.9754C23.7552 41.9246 27.9015 48.9773 34.5812 50.9554C36.1127 51.4093 37.6697 51.5699 39.2588 51.5025C39.4568 51.4939 39.7157 51.5923 39.8562 51.7338C40.8818 52.766 41.8836 53.8207 42.9075 54.8857H42.9058Z" fill="white"/>
<path d="M45.8841 45.1403C45.8841 43.6283 45.879 42.1163 45.8858 40.6042C45.8892 39.7377 46.1007 39.5203 46.9503 39.5185C49.5616 39.5134 52.1729 39.5134 54.7842 39.5185C55.605 39.5185 55.8571 39.7809 55.8588 40.6163C55.8622 43.6818 55.8588 46.7473 55.8588 49.8128C55.8588 50.4239 55.8774 50.4325 56.485 50.4256C57.1382 50.417 57.7915 50.4031 58.443 50.4308C58.636 50.4394 58.9457 50.5361 58.9846 50.6621C59.0387 50.8329 58.9389 51.1246 58.8069 51.2731C57.0096 53.3185 55.1954 55.3449 53.388 57.3817C52.7127 58.1429 52.0477 58.9127 51.3758 59.6773C51.0001 60.1054 50.8596 60.1089 50.4975 59.6929C48.0892 56.9398 45.6827 54.1867 43.2762 51.4336C43.2677 51.4233 43.2542 51.4146 43.2491 51.4025C43.1459 51.1643 42.9276 50.9054 42.9665 50.6949C43.0342 50.3255 43.4167 50.4273 43.6891 50.4239C44.2595 50.417 44.8315 50.4118 45.4018 50.4359C45.7758 50.4515 45.9095 50.303 45.9061 49.9285C45.8943 48.3336 45.901 46.7387 45.901 45.1438C45.8943 45.1438 45.8892 45.1438 45.8824 45.1438L45.8841 45.1403Z" fill="white"/>
<path d="M39.6211 28.4267C39.6397 28.7857 39.5399 29.2293 39.7125 29.4744C39.8631 29.6867 40.32 29.6747 40.6433 29.761C41.5504 30.0009 42.3695 30.4169 43.109 31.0055C43.4086 31.2437 43.5169 31.4801 43.285 31.8495C43.0058 32.2914 42.7824 32.7695 42.5286 33.2269C42.2865 33.6619 42.1139 33.705 41.723 33.4064C40.8802 32.7626 39.963 32.2603 38.8951 32.2534C38.3146 32.25 37.6901 32.3501 37.1587 32.5796C35.9927 33.0836 35.8302 34.4783 36.8355 35.2585C37.3246 35.6382 37.9068 35.9058 38.4703 36.1681C39.3706 36.5876 40.3031 36.938 41.2034 37.3591C42.9381 38.1669 43.9298 39.5202 43.835 41.5069C43.7335 43.6213 42.5455 44.9625 40.6704 45.7323C40.6077 45.7582 40.5417 45.7772 40.4774 45.7996C39.9584 45.9711 39.6989 46.3301 39.6989 46.8767C39.6989 47.2374 39.704 47.5982 39.6939 47.9589C39.6854 48.2541 39.5433 48.4181 39.2336 48.4129C38.7986 48.406 38.3637 48.4129 37.9288 48.4129C37.4532 48.4129 37.3415 48.2972 37.3398 47.795C37.3364 47.2961 37.333 46.7956 37.35 46.2967C37.3584 46.0395 37.2738 45.936 37.0166 45.8911C35.6458 45.6512 34.4341 45.0574 33.3814 44.1305C32.8822 43.6904 32.8754 43.5678 33.2714 43.0327C33.5337 42.6789 33.7977 42.3268 34.0651 41.9764C34.4425 41.4844 34.5441 41.4741 35.0111 41.8659C35.9809 42.6772 37.0657 43.2071 38.3383 43.2778C38.9509 43.3124 39.5263 43.1812 40.056 42.8601C41.0714 42.2456 41.2018 40.8838 40.2405 40.1916C39.6059 39.7359 38.8595 39.4356 38.1504 39.0904C37.2941 38.6744 36.3989 38.3326 35.5662 37.8718C34.4544 37.2556 33.5963 36.3597 33.3408 35.0445C32.9989 33.2839 33.5083 31.7805 34.9451 30.7224C35.5476 30.2788 36.2838 30.013 36.9844 29.7282C37.2467 29.6211 37.3517 29.5331 37.3415 29.2466C37.3212 28.7201 37.3415 28.192 37.333 27.6655C37.3263 27.2823 37.4972 27.1011 37.8729 27.1063C38.2943 27.1114 38.7157 27.1149 39.1371 27.1063C39.5043 27.0976 39.6549 27.2737 39.638 27.6396C39.6262 27.902 39.6363 28.1661 39.6363 28.4302H39.6194L39.6211 28.4267Z" fill="white"/>
</g>
<defs>
<clipPath id="clip0_45_1480">
<rect width="38" height="40" fill="white" transform="translate(21 20)"/>
</clipPath>
</defs>
</svg>
