<svg width="100" height="100" viewBox="0 0 100 100" fill="none" xmlns="http://www.w3.org/2000/svg">
<rect x="1" y="1" width="98" height="98" rx="49" fill="#0040E3"/>
<rect x="1" y="1" width="98" height="98" rx="49" stroke="white" stroke-width="2"/>
<g clip-path="url(#clip0_114_8)">
<path d="M73.9514 58.7873C73.7672 59.14 73.6244 59.5232 73.3901 59.8394C72.8437 60.5781 72.0685 60.9166 71.1619 60.918C65.8931 60.9247 60.6242 60.9322 55.356 60.9153C53.6505 60.9098 52.5347 59.744 52.53 58.0398C52.5252 56.1535 52.5239 54.2672 52.53 52.3816C52.5354 50.6788 53.6728 49.5339 55.3743 49.5319C60.5653 49.5265 65.7556 49.5299 70.9466 49.5299C72.5045 49.5299 73.3244 50.1047 73.8681 51.5698C73.883 51.6105 73.923 51.6416 73.9507 51.6775V58.7886L73.9514 58.7873ZM57.2788 55.2022C57.2788 56.4081 57.5822 56.9274 58.3906 57.0567C58.8137 57.1244 59.2626 57.1197 59.6885 57.0628C60.3473 56.9755 60.7454 56.5076 60.8314 55.8346C60.9749 54.7046 60.7352 53.9233 60.0683 53.6728C59.4035 53.4236 58.6871 53.4141 58.0236 53.6931C57.3195 53.989 57.226 54.6227 57.2795 55.2022H57.2788Z" fill="white"/>
<path d="M71.144 47.665C70.9341 47.665 70.7486 47.665 70.5624 47.665C65.542 47.665 60.5216 47.661 55.5013 47.667C53.5222 47.6691 52.0252 48.4985 51.1146 50.294C50.7612 50.9914 50.6596 51.7456 50.6556 52.5121C50.6454 54.3361 50.6488 56.1607 50.6528 57.9847C50.6589 60.7905 52.638 62.781 55.4505 62.7864C60.502 62.7952 65.5535 62.7891 70.6051 62.7891C70.7872 62.7891 70.9693 62.7891 71.2029 62.7891C71.2029 63.0153 71.2029 63.1832 71.2029 63.3511C71.2029 65.5339 71.2043 67.7168 71.2029 69.8996C71.2009 71.9064 70.1129 72.9992 68.1182 72.9992C55.0835 72.9992 42.0495 72.9992 29.0147 72.9992C27.486 72.9992 26.4358 72.2307 26.1149 70.8685C26.0587 70.6295 26.0506 70.3749 26.0506 70.1271C26.0486 60.2427 26.0486 50.3577 26.0492 40.4726C26.0492 38.7935 27.1731 37.6425 28.8529 37.6418C42.0278 37.6364 55.2027 37.6364 68.3769 37.6412C70.0275 37.6412 71.142 38.673 71.1846 40.3684C71.2442 42.7367 71.1989 45.1078 71.1968 47.4775C71.1968 47.5215 71.1731 47.5648 71.1433 47.665H71.144Z" fill="white"/>
<path d="M65.7044 35.7497H43.6303C43.6248 35.7335 43.6194 35.7165 43.614 35.7003C43.7494 35.6576 43.8842 35.6102 44.0216 35.5723C49.7895 33.9934 55.5573 32.4132 61.3265 30.8376C63.0625 30.3637 64.4288 31.1335 64.9224 32.8668C65.1898 33.8065 65.4349 34.7524 65.7051 35.7497H65.7044Z" fill="white"/>
<path d="M56.348 30.5444C54.9587 30.9235 53.6276 31.2864 52.2972 31.6493C47.4542 32.971 42.6186 34.3217 37.7614 35.5905C36.821 35.8363 35.7959 35.7591 34.8101 35.8308C34.8006 35.7882 34.7905 35.7455 34.781 35.7029C34.8914 35.6359 34.9977 35.56 35.1128 35.5025C40.5617 32.801 46.0114 30.0989 51.463 27.4001C53.1611 26.5599 54.6141 27.0569 55.4645 28.7603C55.7488 29.3304 56.0298 29.9025 56.348 30.5444Z" fill="white"/>
</g>
<defs>
<clipPath id="clip0_114_8">
<rect width="47.9032" height="46" fill="white" transform="translate(26.0486 27)"/>
</clipPath>
</defs>
</svg>
